<svg xmlns="http://www.w3.org/2000/svg" version="1.1" xmlns:xlink="http://www.w3.org/1999/xlink" width="512" height="512" x="0" y="0" viewBox="0 0 24 24" style="enable-background:new 0 0 512 512" xml:space="preserve" class=""><g><path d="M5.5 20a.5.5 0 0 1-.5-.5v-5a.5.5 0 0 1 .5-.5H7c1.103 0 2 .897 2 2s-.897 2-2 2H6v1.5a.5.5 0 0 1-.5.5zm.5-3h1c.551 0 1-.449 1-1s-.449-1-1-1H6z" fill="#000000" opacity="1" data-original="#000000"></path><path d="M19.5 24h-15A2.503 2.503 0 0 1 2 21.5v-19C2 1.122 3.122 0 4.5 0h15C20.878 0 22 1.122 22 2.5v19c0 1.378-1.122 2.5-2.5 2.5zM4.5 1C3.673 1 3 1.673 3 2.5v19c0 .827.673 1.5 1.5 1.5h15c.827 0 1.5-.673 1.5-1.5v-19c0-.827-.673-1.5-1.5-1.5z" fill="#000000" opacity="1" data-original="#000000"></path><path d="M12.5 20h-2a.5.5 0 0 1-.5-.5v-5a.5.5 0 0 1 .5-.5h2c.827 0 1.5.673 1.5 1.5v3c0 .827-.673 1.5-1.5 1.5zM11 19h1.5a.5.5 0 0 0 .5-.5v-3a.5.5 0 0 0-.5-.5H11zM15.5 20a.5.5 0 0 1-.5-.5v-4c0-.827.673-1.5 1.5-1.5h2a.5.5 0 0 1 0 1h-2a.5.5 0 0 0-.5.5v4a.5.5 0 0 1-.5.5z" fill="#000000" opacity="1" data-original="#000000"></path><path d="M18.5 18h-3a.5.5 0 0 1 0-1h3a.5.5 0 0 1 0 1z" fill="#000000" opacity="1" data-original="#000000"></path></g></svg>