<svg width="157" height="105" viewBox="0 0 157 105" fill="none" xmlns="http://www.w3.org/2000/svg">
<g clip-path="url(#clip0_799_780)">
<path d="M123.172 35.2176C123.172 31.2582 123.172 27.1877 123.172 23.0755C123.543 22.9366 123.913 23.2422 124.365 23.0755C124.365 15.6291 124.365 7.77978 124.365 0.124977C126.719 0.124977 128.88 0.124977 130.976 0.124977C130.976 3.79261 130.976 7.54361 130.976 11.4752C129.347 11.4752 127.59 11.4752 125.687 11.4752C125.687 15.4068 125.687 19.2689 125.687 23.0616C126.445 23.0616 127.348 23.0616 128.235 23.0616C128.235 26.9376 128.235 35.2037 128.235 35.2037C128.235 35.2037 130.96 35.2037 132.201 35.2037C132.201 39.0936 132.201 42.928 132.201 46.679C131.814 46.7623 131.492 46.5956 131.105 46.679C131.105 54.1809 131.105 69.7684 131.105 69.7684H132.217V81.8966H129.815C129.815 81.8966 129.815 97.1506 129.815 104.819C129.202 104.819 128.831 104.819 128.235 104.819C128.235 101.068 128.235 97.1923 128.235 93.3997C127.767 93.3997 127.348 93.3997 126.961 93.3997C126.961 97.1229 126.961 100.985 126.961 104.819C125.687 104.819 124.494 104.819 123.22 104.819C123.22 101.166 123.22 97.2062 123.22 93.3997C122.22 93.3997 121.301 93.3997 120.302 93.3997C120.302 97.1229 120.302 101.041 120.302 104.819C119.899 104.819 119.576 104.819 119.108 104.819C119.108 101.235 119.108 97.2618 119.108 93.3997C118.641 93.3997 118.318 93.3997 117.851 93.3997C117.851 97.0673 117.851 100.985 117.851 104.819C115.593 104.819 113.481 104.819 111.272 104.819C111.272 69.9351 111.272 35.0787 111.272 0.111084C113.433 0.111084 115.545 0.111084 117.802 0.111084C117.802 3.93154 117.802 7.71032 117.802 11.503C117.415 11.503 117.012 11.503 116.561 11.503C116.561 13.6702 116.545 15.5596 116.561 17.449C116.577 19.2967 116.641 23.0616 116.641 23.0616C116.641 23.0616 117.448 23.0616 117.786 23.0616C117.786 27.1599 117.786 31.1054 117.786 35.2037C117.367 35.2037 116.964 35.2037 116.545 35.2037C116.545 31.4249 116.545 26.8682 116.545 23.0616C116.142 22.6448 115.303 23.0616 115.303 23.0616C115.303 23.0616 115.303 31.0915 115.303 35.2037C114.916 35.2732 114.529 35.2037 114.142 35.2037C114.142 39.0519 114.142 46.679 114.142 46.679H115.303C115.303 46.679 115.303 38.4962 115.303 35.2037C115.722 35.1342 116.125 35.2037 116.545 35.2037C116.545 46.679 116.545 58.2237 116.545 69.7684C116.158 69.8379 115.755 69.7684 115.384 69.7684C115.384 77.7149 115.384 93.3997 115.384 93.3997H116.545C116.545 93.3997 116.545 77.1592 116.545 69.7684C116.964 69.6989 117.367 69.7684 117.819 69.7684C117.851 73.5611 117.851 81.8966 117.851 81.8966L120.173 81.8688C120.173 81.8688 120.173 58.2515 120.173 46.679C119.753 46.679 119.431 46.679 119.028 46.679C119.028 54.3754 119.028 62.2108 119.028 69.7684C118.48 69.7684 118.141 69.7684 117.819 69.7684C117.786 58.2931 117.786 46.679 117.786 35.2037C119.576 35.2176 121.382 35.2176 123.172 35.2176C123.172 38.9825 123.172 46.6929 123.172 46.6929H124.446C124.446 46.6929 124.446 54.3477 124.446 58.2237C125.3 58.2237 126.929 58.2237 126.929 58.2237C126.929 58.2237 126.961 65.9896 126.961 69.7823C127.38 69.7823 128.251 69.7823 128.251 69.7823V58.2237C128.251 58.2237 127.251 58.2237 126.929 58.2237C126.896 54.4588 126.896 46.6929 126.896 46.6929H125.623C125.623 46.6929 125.623 39.0797 125.623 35.2176C124.768 35.2176 123.962 35.2176 123.172 35.2176ZM124.478 69.7823C124.478 69.7823 124.478 85.5087 124.478 93.4135C124.865 93.4135 125.187 93.4135 125.574 93.4135C125.574 85.8143 125.574 77.3398 125.574 69.7823H124.478ZM112.481 23.0616C112.481 23.0616 112.481 31.7722 112.481 35.2037C112.836 35.551 113.143 34.7036 113.659 35.2037C113.659 30.8553 113.642 23.0616 113.642 23.0616C113.642 23.0616 113.449 23.3672 113.255 23.0616C113.03 23.4089 112.481 23.0616 112.481 23.0616ZM113.594 93.3997C113.594 93.3997 113.594 85.8699 113.594 81.9522C113.159 82.0216 112.788 82.0772 112.481 82.1189C112.481 85.7587 112.481 93.3997 112.481 93.3997H113.594Z" fill="#4E627B"/>
<path d="M71.8972 93.3998C71.1394 93.3998 70.3977 93.3998 69.4302 93.3998C69.4141 97.1369 69.4302 100.957 69.4302 104.819C68.4789 104.819 67.5921 104.819 66.6085 104.819C66.6085 70.0186 66.6085 35.1066 66.6085 0.111235C67.8823 0.111235 69.1722 0.111235 70.5589 0.111235C70.5589 3.77887 70.5589 7.69658 70.5589 11.517C70.2203 11.6004 69.8333 11.4198 69.4302 11.517C69.4302 15.2402 69.4302 19.2413 69.4302 23.0617C70.2203 23.0617 71.0749 23.0617 71.8972 23.0617C71.8972 19.6303 71.8972 11.517 71.8972 11.517H73.1388V23.0617C73.1388 23.0617 74.074 23.0617 74.4932 23.0617V11.517H75.7831C75.7831 11.517 75.7831 3.94558 75.7831 0.111235C76.2507 0.111235 76.7989 0.111235 77.1859 0.111235C77.1859 3.79276 77.1859 11.517 77.1859 11.517H78.5403C78.5403 11.517 78.5403 4.02894 78.5403 0.111235C78.9757 0.0695575 79.2982 0.152913 79.7496 0.111235C79.7496 3.98726 79.7496 7.71047 79.7496 11.517C80.1366 11.517 80.7009 11.517 80.9267 11.517C80.9267 11.517 80.9267 19.283 80.9267 23.0617C81.3943 23.0617 81.9264 23.0617 82.394 23.0617C82.394 19.7275 82.394 11.517 82.394 11.517H83.8451C83.8451 11.517 83.8451 4.04283 83.8451 0.111235C85.1028 -0.236079 86.2799 0.291839 87.5376 0.111235C87.5376 3.94558 87.5376 11.517 87.5376 11.517H86.425V35.2039H87.5698C87.5698 35.2039 87.5698 42.9003 87.5698 46.6791C86.7958 46.6791 85.9735 46.6791 85.1512 46.6791C85.1512 58.0988 85.1512 81.8968 85.1512 81.8968H83.8613V93.3859C83.8613 93.3859 85.4575 93.3859 86.3282 93.3859C86.3282 89.7877 86.3282 85.8145 86.3282 81.8968C86.7636 81.8551 87.1345 81.9384 87.5698 81.8968C87.5698 89.5932 87.5698 97.1786 87.5698 104.819C85.4092 104.819 83.1679 104.819 80.9428 104.819C80.9428 101.096 80.9428 97.3314 80.9428 93.3998C80.4752 93.3998 79.7658 93.3998 79.7658 93.3998C79.7658 93.3998 79.7819 89.6766 79.7658 87.8011C79.7335 85.8561 79.7658 81.8968 79.7658 81.8968C79.7658 81.8968 78.8951 81.8968 78.5565 81.8968C78.5565 77.7985 78.5565 73.8669 78.5565 69.7686C78.9434 69.7686 79.7658 69.7686 79.7658 69.7686V81.8968C80.3623 81.8968 81.7974 81.8968 82.4262 81.8968C82.4262 77.8401 82.4262 69.7686 82.4262 69.7686H80.9589V58.2099C80.9589 58.2099 79.3143 58.2099 78.5565 58.2099C78.5565 50.7635 78.5565 42.6642 78.5565 35.2177C78.5565 35.1066 78.5242 35.315 78.5565 35.2177C78.5887 35.1066 78.5081 35.315 78.5565 35.2177C78.8951 35.2177 79.7658 35.2177 79.7658 35.2177V46.693H80.9428C80.9428 46.693 80.9751 42.6086 80.9428 40.7331C80.9106 38.8993 80.9428 35.2039 80.9428 35.2039C80.9428 35.2039 80.0721 35.2039 79.7658 35.2039C79.7335 31.439 79.7658 23.0617 79.7658 23.0617H77.202V35.2039H75.7992V46.6791H74.5093C74.5093 46.6791 74.5093 38.677 74.5093 35.2039C74.1223 35.2039 73.6225 35.2039 73.1549 35.2039C73.1549 38.8576 73.1549 42.817 73.1549 46.6791C71.865 46.6791 70.7363 46.6791 69.4464 46.6791C69.4464 50.5412 69.4464 58.0988 69.4464 58.0988L68.237 58.2377V69.7547H69.4464V81.8829H71.9133C71.8972 81.9106 71.8972 89.6349 71.8972 93.3998ZM82.394 46.693V69.7824H83.8451V46.693H82.394ZM69.4302 35.2177V23.0617H68.2209V35.2039H69.4302V35.2177ZM83.8613 23.0617V35.2039H85.1512V23.0617H83.8613Z" fill="#4E627B"/>
<path d="M0 104.833C0 69.9074 0 35.037 0 0.125C3.38605 0.125 10.1743 0.125 10.1743 0.125V104.833C10.1743 104.833 3.53117 104.833 0 104.833Z" fill="#4E627B"/>
<path d="M142.521 104.833C139.521 104.833 136.571 104.833 133.572 104.833C133.572 69.9909 133.572 35.2317 133.572 0.125176C136.49 -0.152676 139.473 0.264101 142.521 0.125176C142.521 35.065 142.521 69.6853 142.521 104.833Z" fill="#4E627B"/>
<path d="M57.4339 81.9106C57.4339 70.213 57.4339 58.4738 57.4339 46.6929C56.9824 46.6929 56.6599 46.6929 56.2085 46.6929C56.2085 54.2782 56.2085 62.1414 56.2085 69.7823C55.7409 69.7823 55.4184 69.7823 55.0314 69.7823C55.0314 66.0869 55.0314 62.2804 55.0314 58.3071C54.0962 58.2793 53.2416 58.2376 52.3709 58.2237C51.4841 58.2098 50.5973 58.2237 49.6621 58.2237C49.6621 54.4311 49.6621 46.6929 49.6621 46.6929C49.6621 46.6929 50.3393 46.8457 50.7747 46.6929C50.7747 43.0531 50.7747 38.8714 50.7747 35.2176C50.4199 34.8009 49.5976 35.2176 49.5976 35.2176C49.5976 35.2176 49.5976 26.9932 49.5976 23.0755C48.7269 23.0755 47.9207 23.0755 47.1145 23.0755C47.1145 19.2551 47.1145 15.3513 47.1145 11.5308C47.4531 11.5308 47.8078 11.5308 48.3561 11.5308C48.3561 9.68311 48.3561 7.8215 48.3561 5.9599C48.3561 4.07051 48.3561 2.13945 48.3561 0.138916C48.7592 0.138916 49.0816 0.138916 49.5492 0.138916C49.5492 3.79266 49.5492 7.69647 49.5492 11.5447C50.0168 11.5447 50.3393 11.5447 50.8069 11.5447C50.8069 7.8215 50.8069 3.95937 50.8069 0.138916C51.8227 0.138916 52.6934 0.138916 53.6447 0.138916C53.6447 3.82045 53.6447 11.5447 53.6447 11.5447H54.9024C54.9024 11.5447 54.9024 19.2968 54.9024 23.0894C55.3378 23.2284 55.7248 22.9366 56.1601 23.0894C56.1601 26.7571 56.1601 35.2315 56.1601 35.2315H57.3694C57.3694 35.2315 57.3694 11.9198 57.3694 0.138916C58.8045 0.138916 60.0783 0.138916 61.5133 0.138916C61.5133 3.79266 61.5133 7.65479 61.5133 11.5447C62.8032 11.5447 63.9641 11.5447 65.1896 11.5447C65.1896 15.3235 65.1896 23.0894 65.1896 23.0894H64.0931V35.2315H65.2379C65.2379 35.2315 65.2379 42.928 65.2379 46.7068C64.0609 46.7068 62.9 46.7068 61.6584 46.7068C61.6584 39.3854 61.6584 23.0755 61.6584 23.0755H60.4007C60.4007 23.0755 60.4007 46.4151 60.4007 58.2098C61.1908 58.2098 61.9164 58.2098 62.8032 58.2098C62.8032 62.1275 62.8032 66.0036 62.8032 69.7823C61.997 69.7823 61.1908 69.7823 60.3362 69.7823C60.3362 73.6862 60.3362 81.9106 60.3362 81.9106C60.3362 81.9106 58.1917 81.9106 57.4339 81.9106ZM53.7415 46.6929C54.2413 46.6929 54.5638 46.6929 54.9508 46.6929C54.9508 44.6646 54.9508 42.6918 54.9508 40.8025C54.9508 38.9547 54.9508 36.8986 54.9508 35.2037C54.4187 35.2037 54.0962 35.2037 53.7415 35.2037C53.7415 38.9825 53.7415 42.9141 53.7415 46.6929ZM52.4032 23.0616C52.4032 19.5329 52.4032 15.0595 52.4032 11.5169C52.0485 11.1696 51.726 11.9476 51.3068 11.5169C51.3068 15.6291 51.3068 19.2829 51.3068 23.0616C51.6937 23.0616 52.0162 23.0616 52.4032 23.0616Z" fill="#4E627B"/>
<path d="M99.6144 46.6929C99.2758 46.6929 98.1794 46.6929 98.1794 46.6929V58.1126L96.696 58.2237C96.696 58.2237 96.696 66.1702 96.696 69.7823C95.8414 69.7823 94.2129 69.7823 94.2129 69.7823V58.4043H92.9713V69.7823C92.9713 69.7823 93.8904 69.7823 94.2129 69.7823C94.2451 73.8806 94.2129 77.8122 94.2129 81.9105C93.4067 81.9105 92.6166 81.9105 91.7298 81.9105C91.7298 85.8977 91.7298 89.6626 91.7298 93.3997C91.3912 93.3997 91.0848 93.3997 90.5366 93.3997C90.5366 95.2474 90.5366 97.1646 90.5366 99.0262C90.5366 100.916 90.5366 102.819 90.5366 104.833C89.9884 104.833 89.4885 104.833 88.9403 104.833C88.9403 70.0463 88.9403 35.1204 88.9403 0.125C89.3918 0.125 89.9239 0.125 90.5366 0.125C90.5366 3.76485 90.5366 7.68255 90.5366 11.5308C91.4234 11.5308 92.0845 11.5308 92.9713 11.5308C92.9713 7.82148 92.9713 3.95935 92.9713 0.125C93.4389 0.125 93.7453 0.125 94.2129 0.125C94.2129 7.72423 94.2129 15.4485 94.2129 23.0755C94.6805 23.0755 95.0191 23.0755 95.4222 23.0755C95.4222 19.6302 95.4222 11.5308 95.4222 11.5308H96.696C96.696 11.5308 96.696 3.91767 96.696 0.125C97.6312 0.125 98.5341 0.125 99.6144 0.125C99.6144 1.81989 99.6144 3.73707 99.6144 5.59867C99.6144 7.37692 99.6144 11.5308 99.6144 11.5308H100.84C100.84 11.5308 100.84 19.5746 100.84 23.0755C100.485 23.1867 100.13 22.9088 99.6144 23.0755C99.6144 30.897 99.6144 38.8158 99.6144 46.6929ZM91.7298 46.6929C93.7775 46.6929 96.1478 46.6929 98.1794 46.6929C98.1794 38.8019 98.1794 23.0616 98.1794 23.0616H96.696C96.696 23.0616 96.696 31.3972 96.696 35.2037C95.8092 35.2037 95.0191 35.1898 94.2129 35.2037C93.4067 35.2176 92.5198 35.1759 91.7298 35.2037C91.7298 39.2187 91.7781 42.8724 91.7298 46.6929C91.3912 46.6929 90.9236 46.6929 90.5366 46.6929C90.5366 50.5411 90.5366 54.4588 90.5366 58.1126C90.9558 58.1126 91.3589 58.1126 91.7298 58.1126C91.7298 54.2643 91.6814 50.5967 91.7298 46.6929ZM91.7298 69.7823H90.5366V81.9105H91.7298V69.7823Z" fill="#4E627B"/>
<path d="M28.9104 58.2239V81.9107C28.9104 81.9107 29.7005 81.8273 30.0875 81.9107C30.0875 89.3988 30.0875 97.1647 30.0875 104.833C27.5721 104.833 24.9923 104.833 22.3641 104.833C22.3641 70.102 22.3641 35.2873 22.3641 0.125177C23.3476 -0.0137482 24.428 0.13907 25.4921 0.125177C26.5886 0.111285 27.685 0.125177 28.9104 0.125177C28.9104 4.02899 28.9104 7.7383 28.9104 11.531C28.5235 11.531 28.1204 11.531 27.6689 11.531C27.6689 13.6982 27.6044 23.0757 27.6044 23.0757C27.6044 23.0757 28.5557 23.0757 28.8943 23.0757C28.8943 27.174 28.8943 31.1195 28.8943 35.2178C28.5073 35.2178 28.1042 35.2178 27.6528 35.2178C27.6528 42.8448 27.6528 58.2378 27.6528 58.2378H28.9104V58.2239ZM24.7021 35.2178C24.7021 31.439 24.7021 23.0757 24.7021 23.0757H23.4444L23.4928 35.2178C23.4928 35.2178 24.428 35.2178 24.7666 35.2178C24.7666 42.817 24.7666 50.5552 24.7666 58.2378C25.218 58.2378 25.5566 58.2378 26.0081 58.2378C26.0081 50.5691 26.0081 42.956 26.0081 35.2178C26.3951 35.2178 26.7821 35.2178 27.169 35.2178C27.169 31.1056 27.169 23.0757 27.169 23.0757H26.0081C26.0081 23.0757 26.0081 31.5779 26.0081 35.2178C25.605 35.2178 25.1858 35.2178 24.7021 35.2178ZM26.0081 81.9107H27.2497L27.2335 69.7825H26.0081V81.9107Z" fill="#4E627B"/>
<path d="M37.9722 93.3998C38.0044 97.0813 38.0044 104.819 38.0044 104.819H35.1827C35.1827 104.819 35.1827 89.5655 35.1827 81.8968C34.3443 81.8968 33.5542 81.8968 32.6996 81.8968C32.6996 89.3015 32.6996 104.819 32.6996 104.819H31.3936C31.3936 104.819 31.3936 81.4661 31.3936 69.7686C31.7805 69.7686 32.1675 69.7686 32.6351 69.7686C32.6351 65.7675 32.6351 61.947 32.6351 58.2099C34.3926 58.2099 36.1663 58.2099 38.0528 58.2099C38.0528 62.1832 38.0528 66.1148 38.0528 69.7686C38.5204 69.7686 38.8268 69.7686 39.1654 69.7686C39.1654 62.1138 39.1654 54.3478 39.1654 46.6791C38.3592 46.6791 37.6174 46.6791 36.7629 46.6791C36.7629 42.7753 36.7629 38.9687 36.7629 35.2039C38.8912 35.2039 43.277 35.2039 43.277 35.2039L43.3737 46.6791C43.3737 46.6791 41.3905 46.6791 40.5681 46.6791C40.5681 50.5551 40.5681 54.2645 40.5681 58.0849C40.9068 58.1544 41.2292 58.2377 41.6323 58.3211C41.6323 61.9331 41.6323 69.7686 41.6323 69.7686H43.3092V81.8968H41.7291V104.819H40.6004C40.6004 104.819 40.552 104.903 40.552 104.819C40.552 101.18 40.552 97.3175 40.552 93.3998C39.6168 93.3998 38.8106 93.3998 37.9722 93.3998C37.9399 89.6488 37.9399 81.9107 37.9399 81.9107H36.7629L36.8596 93.3998C36.8596 93.3998 37.6658 93.3998 37.9722 93.3998ZM36.6984 81.9107V69.7824H35.4729L35.6181 81.9107H36.6984Z" fill="#4E627B"/>
<path d="M108.676 23.0616C108.676 26.7848 108.676 35.2037 108.676 35.2037H107.435V23.0616H106.241V35.2037C106.241 35.2037 107.112 35.2037 107.435 35.2037C107.451 38.6213 107.435 46.679 107.435 46.679H106.241C106.241 46.679 106.241 54.2365 106.241 58.182C107.435 58.182 108.628 58.182 109.853 58.182C109.853 62.1136 109.853 65.9757 109.853 69.7684C108.257 69.7684 104.548 69.7684 104.548 69.7684V81.8966H106.225V93.3858H107.419C107.419 93.3858 107.419 85.4114 107.419 81.8966C107.822 81.8966 108.257 81.8966 108.66 81.8966C108.66 81.7994 108.628 81.841 108.66 81.8966C108.66 85.5504 108.66 89.5653 108.66 93.3858C109.128 93.4274 109.434 93.3441 109.853 93.3858C109.853 97.109 109.853 100.957 109.853 104.805C108.144 104.805 106.403 104.805 104.548 104.805C104.548 101.082 104.548 97.2618 104.548 93.3858C103.662 93.3858 102.952 93.3858 102.081 93.3858C102.081 89.4681 102.081 81.8966 102.081 81.8966H103.323V58.1125L102.081 58.2237C102.081 58.2237 102.081 50.5133 102.081 46.6929C102.839 46.6929 104.548 46.6929 104.548 46.6929C104.548 46.6929 104.548 43.053 104.548 41.1914C104.548 39.302 104.548 35.2037 104.548 35.2037H103.307V23.0616H102.065C102.065 23.0616 102.065 15.4485 102.065 11.5169C102.823 11.5169 103.678 11.5169 104.532 11.5169C104.532 7.58528 104.532 3.91765 104.532 0.111084C105.532 0.111084 106.419 0.111084 107.402 0.111084C107.402 7.66864 107.402 15.2957 107.402 23.0616C107.902 23.0616 108.273 23.0616 108.676 23.0616Z" fill="#4E627B"/>
<path d="M47.0984 23.0618C47.0984 27.0212 47.0984 31.0917 47.0984 35.2039C46.7437 35.3428 46.3567 35.0372 45.9214 35.2039C45.9214 50.2912 45.9214 81.8968 45.9214 81.8968H49.5493V93.386H51.1778C51.1778 93.386 51.1778 101.346 51.1778 104.806C50.2426 104.806 49.3719 104.806 48.3561 104.806C48.3561 101.069 48.3561 97.1925 48.3561 93.386C47.4693 93.386 46.7437 93.386 45.9375 93.386C45.9375 97.0814 45.9375 104.806 45.9375 104.806H44.6959C44.6959 104.806 44.6959 35.0372 44.6959 0.0974121C45.5021 0.0974121 46.2277 0.0974121 47.1145 0.0974121C47.1145 3.93176 47.1145 7.71054 47.1145 11.5032C46.7276 11.5032 46.3245 11.5032 45.873 11.5032C45.873 13.6704 45.8569 15.5459 45.873 17.4353C45.8891 19.283 45.9536 23.0479 45.9536 23.0479C45.9536 23.0479 46.7598 23.0618 47.0984 23.0618Z" fill="#4E627B"/>
<path d="M32.6351 11.5171C32.6351 15.2958 32.6351 19.158 32.6351 23.0618C33.9089 23.0618 36.7629 23.0618 36.7629 23.0618V35.2039C36.7629 35.2039 34.8764 35.2039 33.8283 35.2039C33.8283 39.1772 33.8283 42.9976 33.8283 46.6791C33.3768 46.7625 33.0543 46.5958 32.6351 46.6791C32.6351 50.5135 32.6351 54.459 32.6351 58.21C32.2481 58.21 31.8612 58.21 31.3936 58.21C31.3936 62.211 31.3936 66.0315 31.3936 69.7686C31.055 69.7686 30.2488 69.7686 30.2488 69.7686C30.2488 69.7686 30.152 60.3772 30.152 58.21C29.7005 58.21 29.2974 58.21 28.9105 58.21C28.9105 50.5552 28.9105 42.8448 28.9105 35.19C29.7328 34.8983 31.3936 35.19 31.3936 35.19C31.3936 35.19 31.3936 19.0468 31.3936 11.5032C31.7967 11.5171 32.2159 11.5171 32.6351 11.5171Z" fill="#4E627B"/>
<path d="M13.1411 0.125H11.6093V104.833H13.1411V0.125Z" fill="#4E627B"/>
<path d="M143.907 0.125C144.423 0.125 144.891 0.125 145.423 0.125C145.423 34.9537 145.423 69.7545 145.423 104.833C145.004 104.889 144.504 104.764 143.907 104.833C143.907 69.8935 143.907 35.2732 143.907 0.125Z" fill="#4E627B"/>
<path d="M151.76 0.125C152.308 0.125 152.759 0.125 153.291 0.125C153.291 34.9814 153.291 69.7684 153.291 104.833C152.856 104.875 152.34 104.778 151.76 104.833C151.76 69.8657 151.76 35.2315 151.76 0.125Z" fill="#4E627B"/>
<path d="M78.5242 93.3997C77.1053 93.3997 77.0891 93.3997 74.477 93.3997V81.9105H73.1226V58.2237C73.1226 58.2237 74.8801 58.2237 75.7508 58.2237C75.7508 54.306 75.7508 50.4716 75.7508 46.6929C76.1378 46.6929 76.7022 46.6929 77.1536 46.6929C77.1536 48.8601 77.1536 58.2237 77.1536 58.2237C77.1536 58.2237 78.1695 58.2237 78.5081 58.2237C78.5081 62.0442 78.5081 65.948 78.5081 69.7823C77.0246 69.7823 75.4929 69.7823 74.4609 69.7823C74.4609 72.0746 74.4448 74.0334 74.4609 76.0479C74.477 78.0345 74.4609 81.9105 74.4609 81.9105C77.0569 81.9105 77.073 81.9105 78.5081 81.9105C78.5242 85.731 78.5242 89.5792 78.5242 93.3997Z" fill="#4E627B"/>
<path d="M15.6081 104.833C15.2372 104.833 14.9148 104.833 14.5117 104.833C14.5117 69.9212 14.5117 35.0787 14.5117 0.125C14.8825 0.125 15.205 0.125 15.6081 0.125C15.6081 35.037 15.6081 69.8796 15.6081 104.833Z" fill="#4E627B"/>
<path d="M16.9948 0.125C17.3817 0.125 17.7042 0.125 18.0912 0.125C18.0912 35.0648 18.0912 69.8935 18.0912 104.833C17.7042 104.833 17.3817 104.833 16.9948 104.833C16.9948 69.8935 16.9948 35.0648 16.9948 0.125Z" fill="#4E627B"/>
<path d="M149.277 0.125C149.664 0.125 150.002 0.125 150.373 0.125C150.373 35.0787 150.373 69.9074 150.373 104.833C149.986 104.833 149.664 104.833 149.277 104.833C149.277 69.8796 149.277 35.0509 149.277 0.125Z" fill="#4E627B"/>
<path d="M157 104.833C156.613 104.833 156.291 104.833 155.904 104.833C155.904 69.8935 155.904 35.0648 155.904 0.125C156.291 0.125 156.613 0.125 157 0.125C157 35.0509 157 69.8796 157 104.833Z" fill="#4E627B"/>
<path d="M41.6484 11.5169C40.8422 11.5169 40.1005 11.5169 39.2943 11.5169C39.2943 15.3095 39.2943 19.1439 39.2943 23.0616C38.859 23.1033 38.4881 23.0199 38.0366 23.0616C38.0366 19.4495 38.0366 11.5169 38.0366 11.5169H35.1827C35.1827 11.5169 35.1827 3.57033 35.1827 0.111084C37.3594 0.111084 39.4717 0.111084 41.6646 0.111084C41.6484 3.79261 41.6484 7.43247 41.6484 11.5169Z" fill="#4E627B"/>
<path d="M62.8032 81.9106C62.8032 89.4126 62.8032 97.0952 62.8032 104.833C61.9648 105.25 61.0941 104.792 60.2234 104.833C59.3365 104.875 58.4497 104.833 57.4339 104.833C57.4339 100.93 57.4339 93.4137 57.4339 93.4137H61.5617C61.5617 93.4137 61.5455 85.356 61.5778 81.9245C62.126 81.9106 62.4646 81.9106 62.8032 81.9106Z" fill="#4E627B"/>
<path d="M102.098 81.9107C101.291 81.9107 100.453 81.9107 99.6306 81.9107C99.6306 77.7707 99.6306 73.8391 99.6306 69.7825C99.9853 69.6713 100.372 69.9353 100.856 69.7825C100.856 66.0176 100.856 61.9888 100.856 58.2239C101.275 58.2239 101.694 58.2239 102.114 58.2239C102.098 66.1426 102.098 73.9919 102.098 81.9107Z" fill="#4E627B"/>
<path d="M53.7092 81.9106C54.0478 81.9106 54.9185 81.9106 54.9185 81.9106V87.5232V93.3998C54.9185 93.3998 55.8054 93.3998 56.1923 93.3998C56.1923 97.0813 56.1923 100.93 56.1923 104.819C55.4184 104.819 54.6283 104.819 53.7092 104.819C53.7092 97.3036 53.7092 89.5099 53.7092 81.9106Z" fill="#4E627B"/>
<path d="M120.35 11.503C120.624 11.503 120.963 11.503 121.511 11.503C121.511 9.6553 121.511 7.80759 121.511 5.94598C121.511 4.0566 121.511 2.12553 121.511 0.125C122.059 0.125 122.511 0.125 123.075 0.125C123.075 3.77874 123.075 7.55752 123.075 11.3919C122.736 11.4613 122.414 11.5308 121.946 11.628C121.946 15.3374 121.946 19.2551 121.946 23.0755C121.334 23.0755 120.882 23.0755 120.35 23.0755C120.35 19.2412 120.35 15.2957 120.35 11.503Z" fill="#4E627B"/>
<path d="M53.6609 69.7825H50.8714V81.9107H53.6609V69.7825Z" fill="#4E627B"/>
<path d="M47.1629 46.6929C47.5499 46.6929 47.8724 46.6929 48.2593 46.6929C48.2593 54.3199 48.2593 62.1692 48.2593 69.7823C47.8724 69.7823 47.5499 69.7823 47.1629 69.7823C47.1629 62.1553 47.1629 54.306 47.1629 46.6929Z" fill="#4E627B"/>
<path d="M96.696 93.3997H98.1794C98.1794 93.3997 98.1794 101.179 98.1794 104.819C97.744 104.861 97.2765 104.764 96.696 104.819C96.696 100.929 96.696 93.3997 96.696 93.3997Z" fill="#4E627B"/>
<path d="M62.8032 69.7825C63.1418 69.7825 63.9642 69.7825 63.9642 69.7825L64.0448 81.9107C64.0448 81.9107 63.1902 81.9107 62.8032 81.9107C62.8032 77.8124 62.8032 73.8808 62.8032 69.7825Z" fill="#4E627B"/>
<path d="M32.6835 11.5169C32.6835 7.89092 32.6835 3.97322 32.6835 0.111084C33.0543 0.111084 33.3768 0.111084 33.7799 0.111084C33.7799 3.77872 33.7799 7.65475 33.7799 11.5169C33.4091 11.5169 33.0221 11.5169 32.6835 11.5169Z" fill="#4E627B"/>
<path d="M120.269 11.503C119.85 11.503 119.447 11.503 119.028 11.503C119.028 7.72421 119.028 3.95932 119.028 0.111084C119.479 0.111084 119.802 0.111084 120.269 0.111084C120.269 3.95932 120.269 7.72421 120.269 11.503Z" fill="#4E627B"/>
<path d="M28.9105 11.5171C29.3297 11.5171 29.7328 11.5171 30.152 11.5171C30.152 13.3926 30.152 23.0757 30.152 23.0757L28.9266 23.0618C28.9105 23.0618 28.9105 15.3514 28.9105 11.5171Z" fill="#4E627B"/>
<path d="M100.84 46.693C100.84 42.9143 100.84 39.0521 100.84 35.2178C101.291 35.2178 101.63 35.2178 102.098 35.2178C102.098 39.066 102.098 42.9143 102.098 46.693C101.678 46.693 101.259 46.693 100.84 46.693Z" fill="#4E627B"/>
<path d="M119.028 11.5032C119.028 15.2403 119.028 19.0607 119.028 23.0618C118.56 23.0618 118.173 23.0618 117.786 23.0618C117.786 19.2413 117.786 15.3236 117.786 11.5032C118.205 11.5032 118.625 11.5032 119.028 11.5032Z" fill="#4E627B"/>
<path d="M56.1924 93.3998C56.1924 89.6627 56.1924 81.9106 56.1924 81.9106C56.1924 81.9106 57.047 81.9106 57.4339 81.9106C57.4339 85.7311 57.4339 89.5793 57.4339 93.3998C57.0147 93.3998 56.6116 93.3998 56.1924 93.3998Z" fill="#4E627B"/>
<path d="M100.84 58.2237C100.501 58.2237 99.6145 58.2237 99.6145 58.2237C99.6145 58.2237 99.6467 54.3338 99.6145 52.3888C99.5983 50.5133 99.6145 46.6929 99.6145 46.6929C99.6145 46.6929 100.421 46.6929 100.84 46.6929C100.84 50.5133 100.84 54.4032 100.84 58.2237Z" fill="#4E627B"/>
<path d="M30.152 11.5169C30.152 7.7381 30.152 3.95932 30.152 0.111084C30.6035 0.111084 30.9259 0.111084 31.3935 0.111084C31.3935 3.95932 31.3935 7.7381 31.3935 11.5169C30.9743 11.5169 30.5551 11.5169 30.152 11.5169Z" fill="#4E627B"/>
<path d="M108.676 23.0618C108.676 19.4359 108.676 15.3792 108.676 11.5171C109.047 11.5171 109.45 11.5171 109.869 11.5171C109.869 15.1847 109.869 19.2136 109.869 23.0618C109.499 23.0618 109.015 23.0618 108.676 23.0618Z" fill="#4E627B"/>
<path d="M71.8972 93.3997C72.1874 93.3997 73.1388 93.3997 73.1388 93.3997V104.819H71.8972C71.8972 104.833 71.8972 97.1645 71.8972 93.3997Z" fill="#4E627B"/>
<path d="M79.7496 93.3997C79.7496 97.1784 79.7496 100.985 79.7496 104.819C79.2981 104.819 78.9918 104.819 78.5403 104.819C78.5403 100.971 78.5403 97.1784 78.5403 93.3997C78.9434 93.3997 79.3304 93.3997 79.7496 93.3997Z" fill="#4E627B"/>
<path d="M91.7298 93.3997C92.02 93.3997 92.9714 93.3997 92.9714 93.3997C92.9714 93.3997 92.9391 97.109 92.9714 98.9428C93.0036 100.818 92.9714 102.763 92.9714 104.819C92.5682 104.819 92.149 104.819 91.7298 104.819C91.7298 101.041 91.7298 97.1645 91.7298 93.3997Z" fill="#4E627B"/>
<path d="M94.2129 81.9106C94.5031 81.9106 95.4222 81.9106 95.4222 81.9106V93.3998C95.4222 93.3998 94.6482 93.3998 94.2129 93.3998C94.2129 89.621 94.2129 85.6616 94.2129 81.9106Z" fill="#4E627B"/>
</g>
<defs>
<clipPath id="clip0_799_780">
<rect width="157" height="105" fill="white"/>
</clipPath>
</defs>
</svg>
