<svg width="117" height="105" viewBox="0 0 117 105" fill="none" xmlns="http://www.w3.org/2000/svg">
<path d="M4.82152 0H0V104.59H4.82152V0Z" fill="#EC884D"/>
<path d="M17.988 0H9.08672V104.59H17.988V0Z" fill="#EC884D"/>
<path d="M28.0019 0H21.326V104.59H28.0019V0Z" fill="#EC884D"/>
<path d="M37.645 0H33.9361V104.59H37.645V0Z" fill="#EC884D"/>
<path d="M50.0697 0H43.7646V104.59H50.0697V0Z" fill="#EC884D"/>
<path d="M61.0108 0H55.0766V104.59H61.0108V0Z" fill="#EC884D"/>
<path d="M70.8393 0H67.5013V104.59H70.8393V0Z" fill="#EC884D"/>
<path d="M84.7476 0H75.8463V104.59H84.7476V0Z" fill="#EC884D"/>
<path d="M94.5761 0H88.271V104.59H94.5761V0Z" fill="#EC884D"/>
<path d="M104.405 0H100.696V104.59H104.405V0Z" fill="#EC884D"/>
<path d="M116.458 0H110.895V104.59H116.458V0Z" fill="#EC884D"/>
</svg>
