<svg width="137" height="105" viewBox="0 0 137 105" fill="none" xmlns="http://www.w3.org/2000/svg">
<path d="M0.000488281 0H8.04141V104.586H0.000488281V0ZM12.9628 104.586H17.4897V0H12.9628V104.586ZM20.7527 104.586H25.2707V0H20.7527V104.586ZM31.214 104.586H41.1105V0H31.214V104.586ZM49.0349 104.586H53.9831V0H49.0349V104.586ZM61.6565 104.586H82.1667V0H61.6565V104.586ZM115.101 104.586H121.842V0H115.101V104.586ZM127.723 0V104.586H136.911V0H127.723ZM90.3958 104.586H94.8062V0H90.3958V104.586ZM101.126 104.586H105.536V0H101.126V104.586Z" fill="#EF5461"/>
</svg>
