<svg width="110" height="105" viewBox="0 0 110 105" fill="none" xmlns="http://www.w3.org/2000/svg">
<path d="M9.84556 0H1.07084C0.479428 0 0 0.479428 0 1.07084V103.442C0 104.033 0.479428 104.513 1.07084 104.513H9.84556C10.437 104.513 10.9164 104.033 10.9164 103.442V1.07084C10.9164 0.479428 10.4367 0 9.84556 0Z" fill="#8070ED"/>
<path d="M20.5701 86.5844H24.9572C25.5486 86.5844 26.028 86.1049 26.028 85.5135V1.07084C26.028 0.479428 25.5486 0 24.9572 0H20.5701C19.9787 0 19.4993 0.479428 19.4993 1.07084V85.5135C19.4993 86.1049 19.979 86.5844 20.5701 86.5844Z" fill="#8070ED"/>
<path d="M37.1445 86.5844H42.8316C43.423 86.5844 43.9024 86.1049 43.9024 85.5135V1.07084C43.9024 0.479428 43.423 0 42.8316 0H37.1445C36.5531 0 36.0737 0.479428 36.0737 1.07084V85.5135C36.0737 86.1049 36.5534 86.5844 37.1445 86.5844Z" fill="#8070ED"/>
<path d="M52.2568 86.5844H57.7813C58.3727 86.5844 58.8522 86.1049 58.8522 85.5135V1.07084C58.8522 0.479428 58.3727 0 57.7813 0H52.2568C51.6653 0 51.1859 0.479428 51.1859 1.07084V85.5135C51.1859 86.1049 51.6653 86.5844 52.2568 86.5844Z" fill="#8070ED"/>
<path d="M67.3684 86.5844H76.1431C76.7345 86.5844 77.2139 86.1049 77.2139 85.5135V1.07084C77.2139 0.479428 76.7345 0 76.1431 0H67.3684C66.777 0 66.2975 0.479428 66.2975 1.07084V85.5135C66.2975 86.1049 66.7773 86.5844 67.3684 86.5844Z" fill="#8070ED"/>
<path d="M85.4055 86.5844H91.255C91.8464 86.5844 92.3259 86.1049 92.3259 85.5135V1.07084C92.3259 0.479428 91.8464 0 91.255 0H85.4055C84.8141 0 84.3347 0.479428 84.3347 1.07084V85.5135C84.3347 86.1049 84.8141 86.5844 85.4055 86.5844Z" fill="#8070ED"/>
<path d="M108.154 0H99.3796C98.7882 0 98.3088 0.479428 98.3088 1.07084V103.442C98.3088 104.033 98.7882 104.513 99.3796 104.513H108.154C108.746 104.513 109.225 104.033 109.225 103.442V1.07084C109.225 0.479428 108.746 0 108.154 0Z" fill="#8070ED"/>
<path d="M21.3417 91.2471C17.9013 91.2471 15.9291 93.6754 15.9291 97.9095C15.9291 102.155 17.9013 104.589 21.3417 104.589C24.7926 104.589 26.7724 102.155 26.7724 97.9095C26.7724 93.6754 24.7926 91.2471 21.3417 91.2471ZM21.3417 102.867C18.8923 102.867 17.6507 101.199 17.6507 97.9095C17.6507 94.6312 18.8926 92.969 21.3417 92.969C23.8031 92.969 25.0508 94.6312 25.0508 97.9095C25.0508 99.7611 24.5683 102.867 21.3417 102.867Z" fill="#8070ED"/>
<path d="M30.2554 91.2471H27.6214C27.1643 91.2471 26.7938 91.6179 26.7938 92.075V92.1411C26.7938 92.5982 27.1643 92.969 27.6214 92.969H29.3605V103.761C29.3605 104.219 29.7316 104.589 30.1881 104.589H30.2554C30.7119 104.589 31.083 104.219 31.083 103.761V92.075C31.083 91.6179 30.7119 91.2471 30.2554 91.2471Z" fill="#8070ED"/>
<path d="M37.784 97.9043H34.346C33.8883 97.9043 33.5184 98.2751 33.5184 98.7325V98.7989C33.5184 99.2563 33.8883 99.6271 34.346 99.6271H37.784C38.2411 99.6271 38.6116 99.2563 38.6116 98.7989V98.7325C38.6116 98.2751 38.2411 97.9043 37.784 97.9043Z" fill="#8070ED"/>
<path d="M44.5623 91.2471C41.1222 91.2471 39.1494 93.6754 39.1494 97.9095C39.1494 102.155 41.1222 104.589 44.5623 104.589C48.0135 104.589 49.9924 102.155 49.9924 97.9095C49.9924 93.6754 48.0138 91.2471 44.5623 91.2471ZM44.5623 102.867C42.1132 102.867 40.8716 101.199 40.8716 97.9095C40.8716 94.6312 42.1135 92.969 44.5623 92.969C47.0237 92.969 48.2714 94.6312 48.2714 97.9095C48.2714 99.7611 47.7892 102.867 44.5623 102.867Z" fill="#8070ED"/>
<path d="M53.4748 91.2471H50.842C50.3849 91.2471 50.0144 91.6179 50.0144 92.075V92.1411C50.0144 92.5982 50.3849 92.969 50.842 92.969H52.5814V103.761C52.5814 104.219 52.9519 104.589 53.409 104.589H53.4748C53.9325 104.589 54.3036 104.219 54.3036 103.761V92.075C54.3036 91.6179 53.9325 91.2471 53.4748 91.2471Z" fill="#8070ED"/>
<path d="M64.7687 102.867H58.992L62.467 98.9972C63.8692 97.5353 64.7069 95.9392 64.7069 94.7267C64.7069 92.6129 63.1126 91.2471 60.646 91.2471C59.2566 91.2471 57.7954 91.8657 56.7362 92.9023C56.578 93.0568 56.4881 93.2676 56.4875 93.4891C56.485 93.7097 56.5725 93.9223 56.7289 94.079L56.7732 94.1233C57.0939 94.4452 57.614 94.4483 57.9383 94.1307C58.6711 93.4141 59.7085 92.9693 60.6463 92.9693C61.3491 92.9693 62.9853 93.1409 62.9853 94.7267C62.9853 95.3031 62.5242 96.4556 61.2083 97.8281L56.6261 102.919C56.489 103.072 56.4125 103.269 56.4125 103.474V103.762C56.4125 104.219 56.7842 104.59 57.2413 104.59H64.769C65.2267 104.59 65.5972 104.219 65.5972 103.762V103.696C65.5969 103.238 65.2264 102.867 64.7687 102.867Z" fill="#8070ED"/>
<path d="M70.8945 96.5021L74.0883 92.7294C74.2144 92.5798 74.2847 92.3904 74.2847 92.194V92.0747C74.2847 91.6176 73.9136 91.2468 73.4571 91.2468H67.4351C66.9774 91.2468 66.6069 91.6176 66.6069 92.0747V92.1408C66.6069 92.5979 66.9774 92.9687 67.4351 92.9687H71.6401L68.4643 96.7047C68.3367 96.8546 68.2663 97.0446 68.2663 97.2407V97.3603C68.2663 97.8177 68.6375 98.1885 69.0952 98.1885H70.155C71.511 98.1885 73.1267 98.5646 73.1267 100.356C73.1267 101.928 72.028 102.867 70.189 102.867C69.2592 102.867 68.2544 102.581 67.499 102.102C67.134 101.871 66.6528 101.959 66.3933 102.305L66.3551 102.356C66.2155 102.542 66.1605 102.778 66.2036 103.006C66.2461 103.234 66.3832 103.434 66.5805 103.556C67.6379 104.212 68.9532 104.588 70.189 104.588C72.9762 104.588 74.8492 102.86 74.8492 100.287C74.8492 98.1742 73.3216 96.7411 70.8945 96.5021Z" fill="#8070ED"/>
<path d="M84.3861 99.3077H83.2975V96.3192C83.2975 95.8621 82.927 95.4913 82.4693 95.4913H82.4032C81.9455 95.4913 81.5753 95.8621 81.5753 96.3192V99.3077H78.0165L81.9394 92.4877C82.0872 92.2316 82.0859 91.9165 81.9388 91.6604C81.7907 91.4046 81.5175 91.2471 81.2225 91.2471H81.1464C80.8502 91.2471 80.5764 91.4056 80.4283 91.662L75.8999 99.5357C75.8283 99.6614 75.79 99.8034 75.79 99.9484V100.202C75.79 100.659 76.1612 101.03 76.6183 101.03H81.575V103.761C81.575 104.219 81.9452 104.589 82.4029 104.589H82.469C82.9267 104.589 83.2972 104.219 83.2972 103.761V101.03H84.3858C84.8429 101.03 85.214 100.659 85.214 100.202V100.135C85.2146 99.6779 84.8435 99.3077 84.3861 99.3077Z" fill="#8070ED"/>
<path d="M89.3679 96.0732C88.7995 96.0732 88.1111 96.1656 87.4392 96.3253V92.9693H92.6526C93.1097 92.9693 93.4802 92.5985 93.4802 92.1414V92.0753C93.4802 91.6182 93.1097 91.2474 92.6526 91.2474H86.5452C86.0881 91.2474 85.7176 91.6182 85.7176 92.0753V97.5194C85.7176 97.7908 85.851 98.0451 86.0743 98.1999C86.2971 98.3541 86.5822 98.3899 86.8359 98.2944C87.6445 97.9912 88.6379 97.7951 89.3676 97.7951C91.1324 97.7951 92.1864 98.6438 92.1864 100.066C92.1864 101.798 91.1201 102.833 89.3336 102.833C88.3977 102.833 87.2088 102.472 86.3035 101.914C85.9162 101.675 85.4092 101.793 85.1675 102.178L85.1424 102.218C85.0249 102.404 84.9867 102.629 85.0359 102.843C85.0843 103.057 85.2164 103.243 85.4019 103.36C86.5737 104.097 88.0805 104.555 89.3336 104.555C92.0695 104.555 93.908 102.751 93.908 100.066C93.908 97.6776 92.0842 96.0732 89.3679 96.0732Z" fill="#8070ED"/>
</svg>
