<svg width="134" height="105" viewBox="0 0 134 105" fill="none" xmlns="http://www.w3.org/2000/svg">
<path d="M39.6667 0H35.0619V104.515H39.6667V0Z" fill="#2C9ADD"/>
<path d="M28.004 0H25.7019V104.515H28.004V0Z" fill="#2C9ADD"/>
<path d="M53.7059 0H51.4029V104.515H53.7059V0Z" fill="#2C9ADD"/>
<path d="M49.0261 0H46.723V104.515H49.0261V0Z" fill="#2C9ADD"/>
<path d="M9.36017 0H6.98318V104.515H9.36017V0Z" fill="#2C9ADD"/>
<path d="M16.3418 0H14.0389V104.515H16.3418V0Z" fill="#2C9ADD"/>
<path d="M4.67982 0H0V104.59H4.67982V0Z" fill="#2C9ADD"/>
<path d="M58.3863 0H56.0832V104.515H58.3863V0Z" fill="#2C9ADD"/>
<path d="M107.412 0H102.733V104.515H107.412V0Z" fill="#2C9ADD"/>
<path d="M121.452 0H114.469V104.515H121.452V0Z" fill="#2C9ADD"/>
<path d="M126.131 0H123.754V104.515H126.131V0Z" fill="#2C9ADD"/>
<path d="M133.114 0H128.434V104.59H133.114V0Z" fill="#2C9ADD"/>
<path d="M91.0706 0H86.3908V104.515H91.0706V0Z" fill="#2C9ADD"/>
<path d="M100.43 0H95.7505V104.515H100.43V0Z" fill="#2C9ADD"/>
<path d="M81.711 0H77.0314V104.515H81.711V0Z" fill="#2C9ADD"/>
<path d="M70.0482 0H65.3679V104.515H70.0482V0Z" fill="#2C9ADD"/>
</svg>
