<svg width="120" height="120" viewBox="0 0 120 120" fill="none" xmlns="http://www.w3.org/2000/svg">
<path d="M96.4174 0H23.5826C17.3298 0.00552612 11.3347 2.49189 6.91329 6.91329C2.49189 11.3347 0.00552612 17.3298 0 23.5826V96.4174C0.00552612 102.67 2.49189 108.665 6.91329 113.087C11.3347 117.508 17.3298 119.994 23.5826 120H96.4174C102.67 119.994 108.665 117.508 113.087 113.087C117.508 108.665 119.994 102.67 120 96.4174V23.5826C119.994 17.3298 117.508 11.3347 113.087 6.91329C108.665 2.49189 102.67 0.00552612 96.4174 0ZM61.1687 97.5652C61.0219 97.73 60.8418 97.8619 60.6404 97.9522C60.439 98.0426 60.2207 98.0893 60 98.0893C59.7793 98.0893 59.561 98.0426 59.3596 97.9522C59.1582 97.8619 58.9781 97.73 58.8313 97.5652C57.7461 96.3548 32.0348 67.513 32.0348 51.6522C32.0348 35.3113 44.5565 21.9965 60 21.9965C75.4435 21.9965 87.9652 35.2278 87.9652 51.6522C87.9652 67.513 62.2539 96.3548 61.1687 97.5652Z" fill="#FF9E0C"/>
<path d="M60 60.8765C66.5583 60.8765 71.8748 55.56 71.8748 49.0017C71.8748 42.4435 66.5583 37.127 60 37.127C53.4417 37.127 48.1252 42.4435 48.1252 49.0017C48.1252 55.56 53.4417 60.8765 60 60.8765Z" fill="#FF9E0C"/>
</svg>
