<svg width="120" height="120" viewBox="0 0 120 120" fill="none" xmlns="http://www.w3.org/2000/svg">
<g clip-path="url(#clip0_799_451)">
<path d="M103.334 0H16.6663C7.46613 0.0109863 0.0109863 7.46613 0 16.6663V103.334C0.0109863 112.534 7.46613 119.989 16.6663 120H103.334C112.534 119.989 119.989 112.534 120 103.334V16.6663C119.989 7.46613 112.534 0.0109863 103.334 0ZM86.6666 43.3337C86.6666 45.174 85.1743 46.6663 83.3331 46.6663C81.492 46.6663 79.9997 45.174 79.9997 43.3337V40.0003H63.3334V79.9997H70.0003C71.8405 79.9997 73.3337 81.492 73.3337 83.3331C73.3337 85.1743 71.8405 86.6666 70.0003 86.6666H49.9997C48.1595 86.6666 46.6663 85.1743 46.6663 83.3331C46.6663 81.492 48.1595 79.9997 49.9997 79.9997H56.6666V40.0003H40.0003V43.3337C40.0003 45.174 38.508 46.6663 36.6669 46.6663C34.8257 46.6663 33.3334 45.174 33.3334 43.3337V36.6669C33.3334 34.8257 34.8257 33.3334 36.6669 33.3334H83.3331C85.1743 33.3334 86.6666 34.8257 86.6666 36.6669V43.3337Z" fill="#F36021"/>
</g>
<defs>
<clipPath id="clip0_799_451">
<rect width="120" height="120" fill="white"/>
</clipPath>
</defs>
</svg>
