<svg width="119" height="120" viewBox="0 0 119 120" fill="none" xmlns="http://www.w3.org/2000/svg">
<path d="M4.75516 91.2078H0V96.0057H4.75516V91.2078Z" fill="#2BBC05"/>
<path d="M9.51031 91.2078H4.75516V96.0057H9.51031V91.2078Z" fill="#2BBC05"/>
<path d="M14.2607 91.2078H9.50556V96.0057H14.2607V91.2078Z" fill="#2BBC05"/>
<path d="M19.0159 86.4051H14.2607V91.203H19.0159V86.4051Z" fill="#2BBC05"/>
<path d="M19.0159 100.804H14.2607V105.602H19.0159V100.804Z" fill="#2BBC05"/>
<path d="M28.5214 91.2078H23.7663V96.0057H28.5214V91.2078Z" fill="#2BBC05"/>
<path d="M4.75516 96.0057H0V100.804H4.75516V96.0057Z" fill="#2BBC05"/>
<path d="M19.0159 96.0057H14.2607V100.804H19.0159V96.0057Z" fill="#2BBC05"/>
<path d="M4.75516 100.804H0V105.602H4.75516V100.804Z" fill="#2BBC05"/>
<path d="M9.51031 96.0057H4.75516V100.804H9.51031V96.0057Z" fill="#2BBC05"/>
<path d="M14.2607 110.404H9.50556V115.202H14.2607V110.404Z" fill="#2BBC05"/>
<path d="M38.027 115.202H33.2718V120H38.027V115.202Z" fill="#2BBC05"/>
<path d="M4.75516 105.606H0V110.404H4.75516V105.606Z" fill="#2BBC05"/>
<path d="M14.2607 105.606H9.50556V110.404H14.2607V105.606Z" fill="#2BBC05"/>
<path d="M9.51031 110.404H4.75516V115.202H9.51031V110.404Z" fill="#2BBC05"/>
<path d="M28.5214 105.606H23.7663V110.404H28.5214V105.606Z" fill="#2BBC05"/>
<path d="M4.75516 110.404H0V115.202H4.75516V110.404Z" fill="#2BBC05"/>
<path d="M14.2607 115.202H9.50556V120H14.2607V115.202Z" fill="#2BBC05"/>
<path d="M19.0159 115.202H14.2607V120H19.0159V115.202Z" fill="#2BBC05"/>
<path d="M23.7663 115.202H19.0111V120H23.7663V115.202Z" fill="#2BBC05"/>
<path d="M28.5214 110.404H23.7663V115.202H28.5214V110.404Z" fill="#2BBC05"/>
<path d="M4.75516 115.202H0V120H4.75516V115.202Z" fill="#2BBC05"/>
<path d="M9.51031 115.202H4.75516V120H9.51031V115.202Z" fill="#2BBC05"/>
<path d="M28.5214 115.202H23.7663V120H28.5214V115.202Z" fill="#2BBC05"/>
<path d="M95.0651 0H90.31V4.79791H95.0651V0Z" fill="#2BBC05"/>
<path d="M99.8155 0H95.0604V4.79791H99.8155V0Z" fill="#2BBC05"/>
<path d="M104.571 0H99.8155V4.79791H104.571V0Z" fill="#2BBC05"/>
<path d="M109.326 0H104.571V4.79791H109.326V0Z" fill="#2BBC05"/>
<path d="M114.076 0H109.321V4.79791H114.076V0Z" fill="#2BBC05"/>
<path d="M118.831 0H114.076V4.79791H118.831V0Z" fill="#2BBC05"/>
<path d="M99.635 4.56514H94.8799V9.36305H99.635V4.56514Z" fill="#2BBC05"/>
<path d="M118.831 4.79791H114.076V9.59582H118.831V4.79791Z" fill="#2BBC05"/>
<path d="M95.0651 9.60057H90.31V14.3985H95.0651V9.60057Z" fill="#2BBC05"/>
<path d="M104.571 9.60057H99.8155V14.3985H104.571V9.60057Z" fill="#2BBC05"/>
<path d="M109.326 9.60057H104.571V14.3985H109.326V9.60057Z" fill="#2BBC05"/>
<path d="M118.831 9.60057H114.076V14.3985H118.831V9.60057Z" fill="#2BBC05"/>
<path d="M114.076 4.78366H109.321V9.58157H114.076V4.78366Z" fill="#2BBC05"/>
<path d="M104.571 14.3985H99.8155V19.1964H104.571V14.3985Z" fill="#2BBC05"/>
<path d="M109.326 19.2106H104.571V24.0086H109.326V19.2106Z" fill="#2BBC05"/>
<path d="M118.831 14.3985H114.076V19.1964H118.831V14.3985Z" fill="#2BBC05"/>
<path d="M85.5596 14.3985H80.8044V19.1964H85.5596V14.3985Z" fill="#2BBC05"/>
<path d="M104.571 23.9991H99.8155V28.797H104.571V23.9991Z" fill="#2BBC05"/>
<path d="M109.326 23.9991H104.571V28.797H109.326V23.9991Z" fill="#2BBC05"/>
<path d="M114.076 23.9991H109.321V28.797H114.076V23.9991Z" fill="#2BBC05"/>
<path d="M118.831 19.1964H114.076V23.9943H118.831V19.1964Z" fill="#2BBC05"/>
<path d="M95.0651 23.9991H90.31V28.797H95.0651V23.9991Z" fill="#2BBC05"/>
<path d="M99.8155 23.9991H95.0604V28.797H99.8155V23.9991Z" fill="#2BBC05"/>
<path d="M118.831 23.9991H114.076V28.797H118.831V23.9991Z" fill="#2BBC05"/>
<path d="M42.7822 0.0142512H38.027V4.81216H42.7822V0.0142512Z" fill="#2BBC05"/>
<path d="M33.2718 0.0142512H28.5167V4.81216H33.2718V0.0142512Z" fill="#2BBC05"/>
<path d="M38.027 0H33.2718V4.79791H38.027V0Z" fill="#2BBC05"/>
<path d="M52.2877 0.0142512H47.5326V4.81216H52.2877V0.0142512Z" fill="#2BBC05"/>
<path d="M57.0381 0.0142512H52.283V4.81216H57.0381V0.0142512Z" fill="#2BBC05"/>
<path d="M90.31 0.0142512H85.5548V4.81216H90.31V0.0142512Z" fill="#2BBC05"/>
<path d="M85.5596 4.81216H80.8044V9.61007H85.5596V4.81216Z" fill="#2BBC05"/>
<path d="M114.076 96.0057H109.321V100.804H114.076V96.0057Z" fill="#2BBC05"/>
<path d="M109.326 91.2078H104.571V96.0057H109.326V91.2078Z" fill="#2BBC05"/>
<path d="M104.571 96.0057H99.8155V100.804H104.571V96.0057Z" fill="#2BBC05"/>
<path d="M57.0381 4.81216H52.283V9.61007H57.0381V4.81216Z" fill="#2BBC05"/>
<path d="M61.7933 4.81216H57.0381V9.61007H61.7933V4.81216Z" fill="#2BBC05"/>
<path d="M66.5437 4.81216H61.7885V9.61007H66.5437V4.81216Z" fill="#2BBC05"/>
<path d="M71.2988 4.81216H66.5437V9.61007H71.2988V4.81216Z" fill="#2BBC05"/>
<path d="M80.8044 4.81216H76.0492V9.61007H80.8044V4.81216Z" fill="#2BBC05"/>
<path d="M80.8044 0H76.0492V4.79791H80.8044V0Z" fill="#2BBC05"/>
<path d="M47.5326 9.61482H42.7774V14.4127H47.5326V9.61482Z" fill="#2BBC05"/>
<path d="M57.0381 9.61482H52.283V14.4127H57.0381V9.61482Z" fill="#2BBC05"/>
<path d="M66.5437 9.61482H61.7885V14.4127H66.5437V9.61482Z" fill="#2BBC05"/>
<path d="M76.054 9.61482H71.2988V14.4127H76.054V9.61482Z" fill="#2BBC05"/>
<path d="M80.8044 9.61482H76.0492V14.4127H80.8044V9.61482Z" fill="#2BBC05"/>
<path d="M90.31 9.61482H85.5548V14.4127H90.31V9.61482Z" fill="#2BBC05"/>
<path d="M52.2877 14.4127H47.5326V19.2106H52.2877V14.4127Z" fill="#2BBC05"/>
<path d="M42.7822 9.60057H38.027V14.3985H42.7822V9.60057Z" fill="#2BBC05"/>
<path d="M66.5437 14.4127H61.7885V19.2106H66.5437V14.4127Z" fill="#2BBC05"/>
<path d="M76.054 14.4127H71.2988V19.2106H76.054V14.4127Z" fill="#2BBC05"/>
<path d="M38.027 4.81216H33.2718V9.61007H38.027V4.81216Z" fill="#2BBC05"/>
<path d="M109.326 4.79791H104.571V9.59582H109.326V4.79791Z" fill="#2BBC05"/>
<path d="M109.326 86.4051H104.571V91.203H109.326V86.4051Z" fill="#2BBC05"/>
<path d="M52.2877 19.2106H47.5326V24.0086H52.2877V19.2106Z" fill="#2BBC05"/>
<path d="M57.0381 19.2106H52.283V24.0086H57.0381V19.2106Z" fill="#2BBC05"/>
<path d="M61.7933 19.2106H57.0381V24.0086H61.7933V19.2106Z" fill="#2BBC05"/>
<path d="M80.8044 19.2106H76.0492V24.0086H80.8044V19.2106Z" fill="#2BBC05"/>
<path d="M38.027 18.9874H33.2718V23.7853H38.027V18.9874Z" fill="#2BBC05"/>
<path d="M42.7822 14.4127H38.027V19.2106H42.7822V14.4127Z" fill="#2BBC05"/>
<path d="M57.0381 24.0133H52.283V28.8112H57.0381V24.0133Z" fill="#2BBC05"/>
<path d="M90.31 24.0133H85.5548V28.8112H90.31V24.0133Z" fill="#2BBC05"/>
<path d="M4.75516 0H0V4.79791H4.75516V0Z" fill="#2BBC05"/>
<path d="M9.51031 0H4.75516V4.79791H9.51031V0Z" fill="#2BBC05"/>
<path d="M14.2607 0H9.50556V4.79791H14.2607V0Z" fill="#2BBC05"/>
<path d="M19.0159 0H14.2607V4.79791H19.0159V0Z" fill="#2BBC05"/>
<path d="M23.7663 0H19.0111V4.79791H23.7663V0Z" fill="#2BBC05"/>
<path d="M28.5214 0H23.7663V4.79791H28.5214V0Z" fill="#2BBC05"/>
<path d="M4.75516 4.79791H0V9.59582H4.75516V4.79791Z" fill="#2BBC05"/>
<path d="M28.5214 4.79791H23.7663V9.59582H28.5214V4.79791Z" fill="#2BBC05"/>
<path d="M4.75516 9.60057H0V14.3985H4.75516V9.60057Z" fill="#2BBC05"/>
<path d="M14.2607 9.60057H9.50556V14.3985H14.2607V9.60057Z" fill="#2BBC05"/>
<path d="M9.51031 9.35355H4.75516V14.1515H9.51031V9.35355Z" fill="#2BBC05"/>
<path d="M9.51031 4.81216H4.75516V9.61007H9.51031V4.81216Z" fill="#2BBC05"/>
<path d="M4.75516 14.3985H0V19.1964H4.75516V14.3985Z" fill="#2BBC05"/>
<path d="M14.2607 14.3985H9.50556V19.1964H14.2607V14.3985Z" fill="#2BBC05"/>
<path d="M19.0159 14.3985H14.2607V19.1964H19.0159V14.3985Z" fill="#2BBC05"/>
<path d="M9.51031 19.2106H4.75516V24.0086H9.51031V19.2106Z" fill="#2BBC05"/>
<path d="M4.75516 19.1964H0V23.9943H4.75516V19.1964Z" fill="#2BBC05"/>
<path d="M14.2607 23.9991H9.50556V28.797H14.2607V23.9991Z" fill="#2BBC05"/>
<path d="M19.0159 23.9991H14.2607V28.797H19.0159V23.9991Z" fill="#2BBC05"/>
<path d="M23.7663 23.9991H19.0111V28.797H23.7663V23.9991Z" fill="#2BBC05"/>
<path d="M28.5214 18.9874H23.7663V23.7853H28.5214V18.9874Z" fill="#2BBC05"/>
<path d="M4.75516 23.9991H0V28.797H4.75516V23.9991Z" fill="#2BBC05"/>
<path d="M9.51031 23.9991H4.75516V28.797H9.51031V23.9991Z" fill="#2BBC05"/>
<path d="M33.2718 18.9874H28.5167V23.7853H33.2718V18.9874Z" fill="#2BBC05"/>
<path d="M42.7822 28.8112H38.027V33.6091H42.7822V28.8112Z" fill="#2BBC05"/>
<path d="M52.2877 28.8112H47.5326V33.6091H52.2877V28.8112Z" fill="#2BBC05"/>
<path d="M61.7933 28.8112H57.0381V33.6091H61.7933V28.8112Z" fill="#2BBC05"/>
<path d="M71.2988 28.8112H66.5437V33.6091H71.2988V28.8112Z" fill="#2BBC05"/>
<path d="M80.8044 28.8112H76.0492V33.6091H80.8044V28.8112Z" fill="#2BBC05"/>
<path d="M85.5596 23.9991H80.8044V28.797H85.5596V23.9991Z" fill="#2BBC05"/>
<path d="M99.8155 38.4118H95.0604V43.2097H99.8155V38.4118Z" fill="#2BBC05"/>
<path d="M118.831 33.6044H114.076V38.4023H118.831V33.6044Z" fill="#2BBC05"/>
<path d="M118.831 28.8065H114.076V33.6044H118.831V28.8065Z" fill="#2BBC05"/>
<path d="M109.326 28.8112H104.571V33.6091H109.326V28.8112Z" fill="#2BBC05"/>
<path d="M114.076 33.6091H109.321V38.407H114.076V33.6091Z" fill="#2BBC05"/>
<path d="M42.7822 33.6091H38.027V38.407H42.7822V33.6091Z" fill="#2BBC05"/>
<path d="M47.5326 33.6091H42.7774V38.407H47.5326V33.6091Z" fill="#2BBC05"/>
<path d="M61.7933 33.6091H57.0381V38.407H61.7933V33.6091Z" fill="#2BBC05"/>
<path d="M66.5437 33.6091H61.7885V38.407H66.5437V33.6091Z" fill="#2BBC05"/>
<path d="M4.75516 38.4118H0V43.2097H4.75516V38.4118Z" fill="#2BBC05"/>
<path d="M9.51031 38.4118H4.75516V43.2097H9.51031V38.4118Z" fill="#2BBC05"/>
<path d="M19.0159 38.4118H14.2607V43.2097H19.0159V38.4118Z" fill="#2BBC05"/>
<path d="M23.7663 38.4118H19.0111V43.2097H23.7663V38.4118Z" fill="#2BBC05"/>
<path d="M33.2718 38.4118H28.5167V43.2097H33.2718V38.4118Z" fill="#2BBC05"/>
<path d="M14.2607 28.8112H9.50556V33.6091H14.2607V28.8112Z" fill="#2BBC05"/>
<path d="M19.0159 33.6044H14.2607V38.4023H19.0159V33.6044Z" fill="#2BBC05"/>
<path d="M47.5326 38.4118H42.7774V43.2097H47.5326V38.4118Z" fill="#2BBC05"/>
<path d="M61.7933 38.4118H57.0381V43.2097H61.7933V38.4118Z" fill="#2BBC05"/>
<path d="M71.2988 38.4118H66.5437V43.2097H71.2988V38.4118Z" fill="#2BBC05"/>
<path d="M76.054 38.4118H71.2988V43.2097H76.054V38.4118Z" fill="#2BBC05"/>
<path d="M90.31 38.4118H85.5548V43.2097H90.31V38.4118Z" fill="#2BBC05"/>
<path d="M118.831 38.4118H114.076V43.2097H118.831V38.4118Z" fill="#2BBC05"/>
<path d="M4.75516 43.2097H0V48.0076H4.75516V43.2097Z" fill="#2BBC05"/>
<path d="M9.51031 33.6091H4.75516V38.407H9.51031V33.6091Z" fill="#2BBC05"/>
<path d="M9.51031 43.2097H4.75516V48.0076H9.51031V43.2097Z" fill="#2BBC05"/>
<path d="M4.75516 28.8112H0V33.6091H4.75516V28.8112Z" fill="#2BBC05"/>
<path d="M14.2607 43.2097H9.50556V48.0076H14.2607V43.2097Z" fill="#2BBC05"/>
<path d="M23.7663 43.2097H19.0111V48.0076H23.7663V43.2097Z" fill="#2BBC05"/>
<path d="M28.5214 43.2097H23.7663V48.0076H28.5214V43.2097Z" fill="#2BBC05"/>
<path d="M38.027 43.2097H33.2718V48.0076H38.027V43.2097Z" fill="#2BBC05"/>
<path d="M52.2877 43.2097H47.5326V48.0076H52.2877V43.2097Z" fill="#2BBC05"/>
<path d="M66.5437 43.2097H61.7885V48.0076H66.5437V43.2097Z" fill="#2BBC05"/>
<path d="M71.2988 43.2097H66.5437V48.0076H71.2988V43.2097Z" fill="#2BBC05"/>
<path d="M76.054 43.2097H71.2988V48.0076H76.054V43.2097Z" fill="#2BBC05"/>
<path d="M85.5596 43.2097H80.8044V48.0076H85.5596V43.2097Z" fill="#2BBC05"/>
<path d="M95.0651 43.2097H90.31V48.0076H95.0651V43.2097Z" fill="#2BBC05"/>
<path d="M99.8155 43.2097H95.0604V48.0076H99.8155V43.2097Z" fill="#2BBC05"/>
<path d="M104.571 43.2097H99.8155V48.0076H104.571V43.2097Z" fill="#2BBC05"/>
<path d="M109.326 43.2097H104.571V48.0076H109.326V43.2097Z" fill="#2BBC05"/>
<path d="M114.076 43.2097H109.321V48.0076H114.076V43.2097Z" fill="#2BBC05"/>
<path d="M42.7822 18.9874H38.027V23.7853H42.7822V18.9874Z" fill="#2BBC05"/>
<path d="M14.2607 48.0076H9.50556V52.8055H14.2607V48.0076Z" fill="#2BBC05"/>
<path d="M23.7663 48.0076H19.0111V52.8055H23.7663V48.0076Z" fill="#2BBC05"/>
<path d="M33.2718 48.0076H28.5167V52.8055H33.2718V48.0076Z" fill="#2BBC05"/>
<path d="M38.027 48.0076H33.2718V52.8055H38.027V48.0076Z" fill="#2BBC05"/>
<path d="M42.7822 48.0076H38.027V52.8055H42.7822V48.0076Z" fill="#2BBC05"/>
<path d="M47.5326 48.0076H42.7774V52.8055H47.5326V48.0076Z" fill="#2BBC05"/>
<path d="M61.7933 48.0076H57.0381V52.8055H61.7933V48.0076Z" fill="#2BBC05"/>
<path d="M76.054 48.0076H71.2988V52.8055H76.054V48.0076Z" fill="#2BBC05"/>
<path d="M80.8044 48.0076H76.0492V52.8055H80.8044V48.0076Z" fill="#2BBC05"/>
<path d="M90.31 48.0076H85.5548V52.8055H90.31V48.0076Z" fill="#2BBC05"/>
<path d="M95.0651 48.0076H90.31V52.8055H95.0651V48.0076Z" fill="#2BBC05"/>
<path d="M104.571 48.0076H99.8155V52.8055H104.571V48.0076Z" fill="#2BBC05"/>
<path d="M118.831 48.0076H114.076V52.8055H118.831V48.0076Z" fill="#2BBC05"/>
<path d="M4.75516 52.8103H0V57.6082H4.75516V52.8103Z" fill="#2BBC05"/>
<path d="M9.51031 52.8103H4.75516V57.6082H9.51031V52.8103Z" fill="#2BBC05"/>
<path d="M38.027 52.8103H33.2718V57.6082H38.027V52.8103Z" fill="#2BBC05"/>
<path d="M42.7822 52.8103H38.027V57.6082H42.7822V52.8103Z" fill="#2BBC05"/>
<path d="M66.5437 52.6678H61.7885V57.4657H66.5437V52.6678Z" fill="#2BBC05"/>
<path d="M95.0651 52.8103H90.31V57.6082H95.0651V52.8103Z" fill="#2BBC05"/>
<path d="M104.571 52.8103H99.8155V57.6082H104.571V52.8103Z" fill="#2BBC05"/>
<path d="M109.326 52.8103H104.571V57.6082H109.326V52.8103Z" fill="#2BBC05"/>
<path d="M114.076 52.8103H109.321V57.6082H114.076V52.8103Z" fill="#2BBC05"/>
<path d="M118.831 52.8103H114.076V57.6082H118.831V52.8103Z" fill="#2BBC05"/>
<path d="M14.2607 57.6082H9.50556V62.4061H14.2607V57.6082Z" fill="#2BBC05"/>
<path d="M19.0159 57.6082H14.2607V62.4061H19.0159V57.6082Z" fill="#2BBC05"/>
<path d="M33.2718 57.6082H28.5167V62.4061H33.2718V57.6082Z" fill="#2BBC05"/>
<path d="M42.7822 57.6082H38.027V62.4061H42.7822V57.6082Z" fill="#2BBC05"/>
<path d="M47.5326 57.6082H42.7774V62.4061H47.5326V57.6082Z" fill="#2BBC05"/>
<path d="M52.2877 57.6082H47.5326V62.4061H52.2877V57.6082Z" fill="#2BBC05"/>
<path d="M28.5214 14.161H23.7663V18.9589H28.5214V14.161Z" fill="#2BBC05"/>
<path d="M76.054 57.6082H71.2988V62.4061H76.054V57.6082Z" fill="#2BBC05"/>
<path d="M90.31 57.6082H85.5548V62.4061H90.31V57.6082Z" fill="#2BBC05"/>
<path d="M118.831 57.6082H114.076V62.4061H118.831V57.6082Z" fill="#2BBC05"/>
<path d="M4.75516 62.4061H0V67.204H4.75516V62.4061Z" fill="#2BBC05"/>
<path d="M14.2607 62.4061H9.50556V67.204H14.2607V62.4061Z" fill="#2BBC05"/>
<path d="M19.0159 62.4061H14.2607V67.204H19.0159V62.4061Z" fill="#2BBC05"/>
<path d="M28.5214 62.4061H23.7663V67.204H28.5214V62.4061Z" fill="#2BBC05"/>
<path d="M38.027 62.4061H33.2718V67.204H38.027V62.4061Z" fill="#2BBC05"/>
<path d="M52.2877 62.4061H47.5326V67.204H52.2877V62.4061Z" fill="#2BBC05"/>
<path d="M61.7933 62.4061H57.0381V67.204H61.7933V62.4061Z" fill="#2BBC05"/>
<path d="M71.2988 62.4061H66.5437V67.204H71.2988V62.4061Z" fill="#2BBC05"/>
<path d="M76.054 62.4061H71.2988V67.204H76.054V62.4061Z" fill="#2BBC05"/>
<path d="M80.8044 62.4061H76.0492V67.204H80.8044V62.4061Z" fill="#2BBC05"/>
<path d="M85.5596 62.4061H80.8044V67.204H85.5596V62.4061Z" fill="#2BBC05"/>
<path d="M118.831 76.8046H114.076V81.6025H118.831V76.8046Z" fill="#2BBC05"/>
<path d="M118.831 81.6072H114.076V86.4051H118.831V81.6072Z" fill="#2BBC05"/>
<path d="M4.75516 67.2087H0V72.0067H4.75516V67.2087Z" fill="#2BBC05"/>
<path d="M23.7663 52.6678H19.0111V57.4657H23.7663V52.6678Z" fill="#2BBC05"/>
<path d="M19.0159 67.2087H14.2607V72.0067H19.0159V67.2087Z" fill="#2BBC05"/>
<path d="M23.7663 67.2087H19.0111V72.0067H23.7663V67.2087Z" fill="#2BBC05"/>
<path d="M28.5214 67.2087H23.7663V72.0067H28.5214V67.2087Z" fill="#2BBC05"/>
<path d="M33.2718 67.2087H28.5167V72.0067H33.2718V67.2087Z" fill="#2BBC05"/>
<path d="M38.027 67.2087H33.2718V72.0067H38.027V67.2087Z" fill="#2BBC05"/>
<path d="M47.5326 67.2087H42.7774V72.0067H47.5326V67.2087Z" fill="#2BBC05"/>
<path d="M71.2988 67.2087H66.5437V72.0067H71.2988V67.2087Z" fill="#2BBC05"/>
<path d="M76.054 67.2087H71.2988V72.0067H76.054V67.2087Z" fill="#2BBC05"/>
<path d="M85.5596 67.2087H80.8044V72.0067H85.5596V67.2087Z" fill="#2BBC05"/>
<path d="M90.31 67.2087H85.5548V72.0067H90.31V67.2087Z" fill="#2BBC05"/>
<path d="M99.8155 67.2087H95.0604V72.0067H99.8155V67.2087Z" fill="#2BBC05"/>
<path d="M104.571 67.2087H99.8155V72.0067H104.571V67.2087Z" fill="#2BBC05"/>
<path d="M104.571 91.2078H99.8155V96.0057H104.571V91.2078Z" fill="#2BBC05"/>
<path d="M114.076 67.2087H109.321V72.0067H114.076V67.2087Z" fill="#2BBC05"/>
<path d="M118.831 67.2087H114.076V72.0067H118.831V67.2087Z" fill="#2BBC05"/>
<path d="M28.6117 27.4193H23.8565V32.2173H28.6117V27.4193Z" fill="#2BBC05"/>
<path d="M28.5214 72.0067H23.7663V76.8046H28.5214V72.0067Z" fill="#2BBC05"/>
<path d="M38.027 72.0067H33.2718V76.8046H38.027V72.0067Z" fill="#2BBC05"/>
<path d="M47.5326 72.0067H42.7774V76.8046H47.5326V72.0067Z" fill="#2BBC05"/>
<path d="M61.7933 72.0067H57.0381V76.8046H61.7933V72.0067Z" fill="#2BBC05"/>
<path d="M71.2988 72.0067H66.5437V76.8046H71.2988V72.0067Z" fill="#2BBC05"/>
<path d="M80.8044 72.0067H76.0492V76.8046H80.8044V72.0067Z" fill="#2BBC05"/>
<path d="M85.5596 72.0067H80.8044V76.8046H85.5596V72.0067Z" fill="#2BBC05"/>
<path d="M95.0651 72.0067H90.31V76.8046H95.0651V72.0067Z" fill="#2BBC05"/>
<path d="M104.571 72.0067H99.8155V76.8046H104.571V72.0067Z" fill="#2BBC05"/>
<path d="M109.326 72.0067H104.571V76.8046H109.326V72.0067Z" fill="#2BBC05"/>
<path d="M118.831 72.0067H114.076V76.8046H118.831V72.0067Z" fill="#2BBC05"/>
<path d="M4.75516 76.8046H0V81.6025H4.75516V76.8046Z" fill="#2BBC05"/>
<path d="M14.2607 76.8046H9.50556V81.6025H14.2607V76.8046Z" fill="#2BBC05"/>
<path d="M19.0159 72.0067H14.2607V76.8046H19.0159V72.0067Z" fill="#2BBC05"/>
<path d="M23.7663 76.8046H19.0111V81.6025H23.7663V76.8046Z" fill="#2BBC05"/>
<path d="M33.2718 76.8046H28.5167V81.6025H33.2718V76.8046Z" fill="#2BBC05"/>
<path d="M38.027 76.8046H33.2718V81.6025H38.027V76.8046Z" fill="#2BBC05"/>
<path d="M52.2877 76.8046H47.5326V81.6025H52.2877V76.8046Z" fill="#2BBC05"/>
<path d="M57.0381 76.8046H52.283V81.6025H57.0381V76.8046Z" fill="#2BBC05"/>
<path d="M61.7933 76.8046H57.0381V81.6025H61.7933V76.8046Z" fill="#2BBC05"/>
<path d="M66.5437 76.8046H61.7885V81.6025H66.5437V76.8046Z" fill="#2BBC05"/>
<path d="M76.054 76.8046H71.2988V81.6025H76.054V76.8046Z" fill="#2BBC05"/>
<path d="M80.8044 76.8046H76.0492V81.6025H80.8044V76.8046Z" fill="#2BBC05"/>
<path d="M85.5596 76.8046H80.8044V81.6025H85.5596V76.8046Z" fill="#2BBC05"/>
<path d="M95.0651 81.6072H90.31V86.4051H95.0651V81.6072Z" fill="#2BBC05"/>
<path d="M109.326 76.8046H104.571V81.6025H109.326V76.8046Z" fill="#2BBC05"/>
<path d="M114.076 76.8046H109.321V81.6025H114.076V76.8046Z" fill="#2BBC05"/>
<path d="M42.7822 81.6072H38.027V86.4051H42.7822V81.6072Z" fill="#2BBC05"/>
<path d="M47.5326 81.6072H42.7774V86.4051H47.5326V81.6072Z" fill="#2BBC05"/>
<path d="M57.0381 81.6072H52.283V86.4051H57.0381V81.6072Z" fill="#2BBC05"/>
<path d="M99.8155 81.6072H95.0604V86.4051H99.8155V81.6072Z" fill="#2BBC05"/>
<path d="M104.571 86.4051H99.8155V91.203H104.571V86.4051Z" fill="#2BBC05"/>
<path d="M114.076 81.6072H109.321V86.4051H114.076V81.6072Z" fill="#2BBC05"/>
<path d="M14.2607 81.6072H9.50556V86.4051H14.2607V81.6072Z" fill="#2BBC05"/>
<path d="M9.51031 86.4051H4.75516V91.203H9.51031V86.4051Z" fill="#2BBC05"/>
<path d="M38.027 81.6072H33.2718V86.4051H38.027V81.6072Z" fill="#2BBC05"/>
<path d="M33.2718 86.4051H28.5167V91.203H33.2718V86.4051Z" fill="#2BBC05"/>
<path d="M33.2718 91.2078H28.5167V96.0057H33.2718V91.2078Z" fill="#2BBC05"/>
<path d="M52.2877 86.4051H47.5326V91.203H52.2877V86.4051Z" fill="#2BBC05"/>
<path d="M61.7933 86.4051H57.0381V91.203H61.7933V86.4051Z" fill="#2BBC05"/>
<path d="M76.054 81.6072H71.2988V86.4051H76.054V81.6072Z" fill="#2BBC05"/>
<path d="M85.5596 91.2078H80.8044V96.0057H85.5596V91.2078Z" fill="#2BBC05"/>
<path d="M90.31 86.4051H85.5548V91.203H90.31V86.4051Z" fill="#2BBC05"/>
<path d="M99.8155 86.4051H95.0604V91.203H99.8155V86.4051Z" fill="#2BBC05"/>
<path d="M118.831 86.4051H114.076V91.203H118.831V86.4051Z" fill="#2BBC05"/>
<path d="M57.0381 91.2078H52.283V96.0057H57.0381V91.2078Z" fill="#2BBC05"/>
<path d="M95.0651 91.2078H90.31V96.0057H95.0651V91.2078Z" fill="#2BBC05"/>
<path d="M76.054 91.2078H71.2988V96.0057H76.054V91.2078Z" fill="#2BBC05"/>
<path d="M80.8044 91.2078H76.0492V96.0057H80.8044V91.2078Z" fill="#2BBC05"/>
<path d="M99.8155 91.2078H95.0604V96.0057H99.8155V91.2078Z" fill="#2BBC05"/>
<path d="M118.831 91.2078H114.076V96.0057H118.831V91.2078Z" fill="#2BBC05"/>
<path d="M42.7822 86.4051H38.027V91.203H42.7822V86.4051Z" fill="#2BBC05"/>
<path d="M42.7822 96.0057H38.027V100.804H42.7822V96.0057Z" fill="#2BBC05"/>
<path d="M52.2877 96.0057H47.5326V100.804H52.2877V96.0057Z" fill="#2BBC05"/>
<path d="M57.0381 96.0057H52.283V100.804H57.0381V96.0057Z" fill="#2BBC05"/>
<path d="M90.31 115.202H85.5548V120H90.31V115.202Z" fill="#2BBC05"/>
<path d="M71.2988 96.0057H66.5437V100.804H71.2988V96.0057Z" fill="#2BBC05"/>
<path d="M76.054 96.0057H71.2988V100.804H76.054V96.0057Z" fill="#2BBC05"/>
<path d="M80.8044 96.0057H76.0492V100.804H80.8044V96.0057Z" fill="#2BBC05"/>
<path d="M85.5596 96.0057H80.8044V100.804H85.5596V96.0057Z" fill="#2BBC05"/>
<path d="M90.31 96.0057H85.5548V100.804H90.31V96.0057Z" fill="#2BBC05"/>
<path d="M95.0651 96.0057H90.31V100.804H95.0651V96.0057Z" fill="#2BBC05"/>
<path d="M99.8155 96.0057H95.0604V100.804H99.8155V96.0057Z" fill="#2BBC05"/>
<path d="M23.7663 81.6072H19.0111V86.4051H23.7663V81.6072Z" fill="#2BBC05"/>
<path d="M42.7822 100.804H38.027V105.602H42.7822V100.804Z" fill="#2BBC05"/>
<path d="M47.5326 100.804H42.7774V105.602H47.5326V100.804Z" fill="#2BBC05"/>
<path d="M99.8155 115.202H95.0604V120H99.8155V115.202Z" fill="#2BBC05"/>
<path d="M66.5437 96.0057H61.7885V100.804H66.5437V96.0057Z" fill="#2BBC05"/>
<path d="M66.5437 81.6072H61.7885V86.4051H66.5437V81.6072Z" fill="#2BBC05"/>
<path d="M90.31 100.804H85.5548V105.602H90.31V100.804Z" fill="#2BBC05"/>
<path d="M114.076 100.804H109.321V105.602H114.076V100.804Z" fill="#2BBC05"/>
<path d="M118.831 100.804H114.076V105.602H118.831V100.804Z" fill="#2BBC05"/>
<path d="M38.1173 91.2078H33.3621V96.0057H38.1173V91.2078Z" fill="#2BBC05"/>
<path d="M47.5326 105.606H42.7774V110.404H47.5326V105.606Z" fill="#2BBC05"/>
<path d="M57.0381 105.606H52.283V110.404H57.0381V105.606Z" fill="#2BBC05"/>
<path d="M66.5437 105.606H61.7885V110.404H66.5437V105.606Z" fill="#2BBC05"/>
<path d="M76.054 105.606H71.2988V110.404H76.054V105.606Z" fill="#2BBC05"/>
<path d="M85.5596 105.606H80.8044V110.404H85.5596V105.606Z" fill="#2BBC05"/>
<path d="M99.8155 105.606H95.0604V110.404H99.8155V105.606Z" fill="#2BBC05"/>
<path d="M104.571 105.606H99.8155V110.404H104.571V105.606Z" fill="#2BBC05"/>
<path d="M109.326 105.606H104.571V110.404H109.326V105.606Z" fill="#2BBC05"/>
<path d="M114.076 105.606H109.321V110.404H114.076V105.606Z" fill="#2BBC05"/>
<path d="M118.831 105.606H114.076V110.404H118.831V105.606Z" fill="#2BBC05"/>
<path d="M42.7822 110.404H38.027V115.202H42.7822V110.404Z" fill="#2BBC05"/>
<path d="M52.2877 110.404H47.5326V115.202H52.2877V110.404Z" fill="#2BBC05"/>
<path d="M57.0381 110.404H52.283V115.202H57.0381V110.404Z" fill="#2BBC05"/>
<path d="M71.2988 110.404H66.5437V115.202H71.2988V110.404Z" fill="#2BBC05"/>
<path d="M76.054 110.404H71.2988V115.202H76.054V110.404Z" fill="#2BBC05"/>
<path d="M95.0651 110.404H90.31V115.202H95.0651V110.404Z" fill="#2BBC05"/>
<path d="M99.8155 110.404H95.0604V115.202H99.8155V110.404Z" fill="#2BBC05"/>
<path d="M109.326 110.404H104.571V115.202H109.326V110.404Z" fill="#2BBC05"/>
<path d="M114.076 110.404H109.321V115.202H114.076V110.404Z" fill="#2BBC05"/>
<path d="M118.831 110.404H114.076V115.202H118.831V110.404Z" fill="#2BBC05"/>
<path d="M33.2718 115.202H28.5167V120H33.2718V115.202Z" fill="#2BBC05"/>
<path d="M42.7822 115.202H38.027V120H42.7822V115.202Z" fill="#2BBC05"/>
<path d="M47.5326 115.202H42.7774V120H47.5326V115.202Z" fill="#2BBC05"/>
<path d="M52.2877 115.202H47.5326V120H52.2877V115.202Z" fill="#2BBC05"/>
<path d="M61.7933 115.202H57.0381V120H61.7933V115.202Z" fill="#2BBC05"/>
<path d="M80.8044 115.202H76.0492V120H80.8044V115.202Z" fill="#2BBC05"/>
<path d="M85.5596 115.202H80.8044V120H85.5596V115.202Z" fill="#2BBC05"/>
<path d="M104.571 115.202H99.8155V120H104.571V115.202Z" fill="#2BBC05"/>
<path d="M118.831 115.202H114.076V120H118.831V115.202Z" fill="#2BBC05"/>
</svg>
