<svg width="139" height="120" viewBox="0 0 139 120" fill="none" xmlns="http://www.w3.org/2000/svg">
<path d="M113.684 0H25.2632C11.3333 0 0 11.3333 0 25.2632V69.4737C0 83.4036 11.3333 94.7368 25.2632 94.7368H36.362C39.7374 94.7368 42.9091 96.0506 45.2945 98.4375L65.0082 118.15C66.2418 119.383 67.8577 120 69.4737 120C71.0896 120 72.7056 119.383 73.9391 118.15L93.6513 98.4375C96.0382 96.0506 99.2116 94.7368 102.585 94.7368H113.684C127.614 94.7368 138.947 83.4036 138.947 69.4737V25.2632C138.947 11.3333 127.614 0 113.684 0Z" fill="#FFC107"/>
<path d="M104.211 60C104.211 63.4879 101.383 66.3158 97.8947 66.3158H41.0526C37.5648 66.3158 34.7368 63.4879 34.7368 60C34.7368 56.5121 37.5648 53.6842 41.0526 53.6842H97.8947C101.383 53.6842 104.211 56.5121 104.211 60ZM104.211 28.4211H34.7368C31.249 28.4211 28.4211 31.249 28.4211 34.7368C28.4211 38.2247 31.249 41.0526 34.7368 41.0526H104.211C107.698 41.0526 110.526 38.2247 110.526 34.7368C110.526 31.249 107.698 28.4211 104.211 28.4211Z" fill="white"/>
</svg>
