<svg width="120" height="120" viewBox="0 0 120 120" fill="none" xmlns="http://www.w3.org/2000/svg">
<path fill-rule="evenodd" clip-rule="evenodd" d="M0 21.6521C0 9.80618 9.80618 0 21.6521 0H98.3476C110.194 0 120 9.80618 120 21.6521V98.3476C120 110.795 110.09 120 98.3476 120H21.6521C9.80618 120 0 110.194 0 98.3476V21.6521ZM67.176 32.3168C72.6087 26.884 82.2534 26.884 87.6867 32.3168L88.1853 32.8153C93.6175 38.2482 93.6169 47.8931 88.1847 53.3258L81.2122 60.2978C79.1749 62.3351 79.1749 65.6389 81.2122 67.6762C83.2495 69.714 86.5533 69.714 88.5905 67.6762L95.5631 60.7042C105.071 51.1964 105.07 34.9435 95.5625 25.4356L95.0645 24.9377C85.5567 15.4304 69.3049 15.4306 59.7971 24.9383L52.8251 31.9108C50.7873 33.9483 50.7873 37.2518 52.8251 39.2893C54.8624 41.3268 58.1656 41.3268 60.2035 39.2893L67.176 32.3168ZM38.788 60.204C40.8255 58.1667 40.8254 54.8629 38.7879 52.8256C36.7503 50.7884 33.4469 50.7884 31.4094 52.8256L24.4371 59.7982C14.9294 69.306 14.9298 85.5578 24.4371 95.0656L24.9352 95.5642C34.4431 105.072 50.6951 105.072 60.2029 95.5642L67.1755 88.5916C69.2127 86.5544 69.2127 83.2505 67.1755 81.2133C65.1376 79.1755 61.8344 79.1755 59.7971 81.2133L52.8245 88.1858C47.3917 93.618 37.7466 93.618 32.3137 88.1858L31.8156 87.6873C26.3828 82.2545 26.3828 72.6093 31.8157 67.1765L38.788 60.204ZM74.1044 45.8125C76.1656 47.8258 76.2044 51.1293 74.1911 53.1905L53.274 74.6056C51.2607 76.6669 47.9574 76.7056 45.8961 74.6924C43.8347 72.6785 43.7959 69.3753 45.8093 67.314L66.7265 45.8992C68.7398 43.8379 72.0431 43.799 74.1044 45.8125Z" fill="#7B67FF"/>
</svg>
