<svg width="120" height="120" viewBox="0 0 120 120" fill="none" xmlns="http://www.w3.org/2000/svg">
<g clip-path="url(#clip0_799_476)">
<path d="M120 10.4365H114.788V15.6482H120V10.4365Z" fill="#17C7B0"/>
<path d="M120 26.0847H114.788V31.2964H120V26.0847Z" fill="#17C7B0"/>
<path d="M120 36.5211H114.788V41.7328H120V36.5211Z" fill="#17C7B0"/>
<path d="M120 41.746H114.788V46.9576H120V41.746Z" fill="#17C7B0"/>
<path d="M114.775 31.3094H109.563V36.5211H114.775V31.3094Z" fill="#17C7B0"/>
<path d="M114.775 5.21167H109.563V10.4233H114.775V5.21167Z" fill="#17C7B0"/>
<path d="M114.775 0H109.563V5.21167H114.775V0Z" fill="#17C7B0"/>
<path d="M109.563 10.4365H104.352V15.6482H109.563V10.4365Z" fill="#17C7B0"/>
<path d="M109.563 15.6482H104.352V20.8599H109.563V15.6482Z" fill="#17C7B0"/>
<path d="M109.563 26.0847H104.352V31.2964H109.563V26.0847Z" fill="#17C7B0"/>
<path d="M109.563 31.3094H104.352V36.5211H109.563V31.3094Z" fill="#17C7B0"/>
<path d="M109.563 41.746H104.352V46.9576H109.563V41.746Z" fill="#17C7B0"/>
<path d="M109.563 46.9576H104.352V52.1693H109.563V46.9576Z" fill="#17C7B0"/>
<path d="M109.563 5.21167H104.352V10.4233H109.563V5.21167Z" fill="#17C7B0"/>
<path d="M109.563 0H104.352V5.21167H109.563V0Z" fill="#17C7B0"/>
<path d="M104.339 20.873H99.127V26.0847H104.339V20.873Z" fill="#17C7B0"/>
<path d="M104.339 26.0847H99.127V31.2964H104.339V26.0847Z" fill="#17C7B0"/>
<path d="M104.339 31.3094H99.127V36.5211H104.339V31.3094Z" fill="#17C7B0"/>
<path d="M104.339 41.746H99.127V46.9576H104.339V41.746Z" fill="#17C7B0"/>
<path d="M104.339 46.9576H99.127V52.1693H104.339V46.9576Z" fill="#17C7B0"/>
<path d="M104.339 5.21167H99.127V10.4233H104.339V5.21167Z" fill="#17C7B0"/>
<path d="M99.127 20.873H93.9153V26.0847H99.127V20.873Z" fill="#17C7B0"/>
<path d="M99.127 31.3094H93.9153V36.5211H99.127V31.3094Z" fill="#17C7B0"/>
<path d="M99.127 41.746H93.9153V46.9576H99.127V41.746Z" fill="#17C7B0"/>
<path d="M99.127 46.9576H93.9153V52.1693H99.127V46.9576Z" fill="#17C7B0"/>
<path d="M93.9153 10.4365H88.7036V15.6482H93.9153V10.4365Z" fill="#17C7B0"/>
<path d="M93.9153 20.873H88.7036V26.0847H93.9153V20.873Z" fill="#17C7B0"/>
<path d="M93.9153 26.0847H88.7036V31.2964H93.9153V26.0847Z" fill="#17C7B0"/>
<path d="M93.9153 36.5211H88.7036V41.7328H93.9153V36.5211Z" fill="#17C7B0"/>
<path d="M93.9153 46.9576H88.7036V52.1693H93.9153V46.9576Z" fill="#17C7B0"/>
<path d="M88.6905 20.873H83.4789V26.0847H88.6905V20.873Z" fill="#17C7B0"/>
<path d="M88.6905 31.3094H83.4789V36.5211H88.6905V31.3094Z" fill="#17C7B0"/>
<path d="M88.6905 36.5211H83.4789V41.7328H88.6905V36.5211Z" fill="#17C7B0"/>
<path d="M88.6905 41.746H83.4789V46.9576H88.6905V41.746Z" fill="#17C7B0"/>
<path d="M88.6905 46.9576H83.4789V52.1693H88.6905V46.9576Z" fill="#17C7B0"/>
<path d="M88.6905 5.21167H83.4789V10.4233H88.6905V5.21167Z" fill="#17C7B0"/>
<path d="M83.4789 10.4365H78.2672V15.6482H83.4789V10.4365Z" fill="#17C7B0"/>
<path d="M83.4789 20.873H78.2672V26.0847H83.4789V20.873Z" fill="#17C7B0"/>
<path d="M83.4789 36.5211H78.2672V41.7328H83.4789V36.5211Z" fill="#17C7B0"/>
<path d="M83.4789 41.746H78.2672V46.9576H83.4789V41.746Z" fill="#17C7B0"/>
<path d="M83.4789 46.9576H78.2672V52.1693H83.4789V46.9576Z" fill="#17C7B0"/>
<path d="M83.4789 5.21167H78.2672V10.4233H83.4789V5.21167Z" fill="#17C7B0"/>
<path d="M83.4789 0H78.2672V5.21167H83.4789V0Z" fill="#17C7B0"/>
<path d="M78.254 20.873H73.0424V26.0847H78.254V20.873Z" fill="#17C7B0"/>
<path d="M78.254 26.0847H73.0424V31.2964H78.254V26.0847Z" fill="#17C7B0"/>
<path d="M78.254 31.3094H73.0424V36.5211H78.254V31.3094Z" fill="#17C7B0"/>
<path d="M78.254 36.5211H73.0424V41.7328H78.254V36.5211Z" fill="#17C7B0"/>
<path d="M78.254 0H73.0424V5.21167H78.254V0Z" fill="#17C7B0"/>
<path d="M73.0424 15.6482H67.8307V20.8599H73.0424V15.6482Z" fill="#17C7B0"/>
<path d="M73.0424 20.873H67.8307V26.0847H73.0424V20.873Z" fill="#17C7B0"/>
<path d="M73.0424 26.0847H67.8307V31.2964H73.0424V26.0847Z" fill="#17C7B0"/>
<path d="M73.0424 31.3094H67.8307V36.5211H73.0424V31.3094Z" fill="#17C7B0"/>
<path d="M73.0424 36.5211H67.8307V41.7328H73.0424V36.5211Z" fill="#17C7B0"/>
<path d="M73.0424 46.9576H67.8307V52.1693H73.0424V46.9576Z" fill="#17C7B0"/>
<path d="M73.0424 5.21167H67.8307V10.4233H73.0424V5.21167Z" fill="#17C7B0"/>
<path d="M73.0424 0H67.8307V5.21167H73.0424V0Z" fill="#17C7B0"/>
<path d="M120 67.8307H114.788V73.0424H120V67.8307Z" fill="#17C7B0"/>
<path d="M120 83.4789H114.788V88.6905H120V83.4789Z" fill="#17C7B0"/>
<path d="M120 88.7036H114.788V93.9153H120V88.7036Z" fill="#17C7B0"/>
<path d="M114.775 62.6058H109.563V67.8175H114.775V62.6058Z" fill="#17C7B0"/>
<path d="M114.775 83.4789H109.563V88.6905H114.775V83.4789Z" fill="#17C7B0"/>
<path d="M114.775 88.7036H109.563V93.9153H114.775V88.7036Z" fill="#17C7B0"/>
<path d="M109.563 83.4789H104.352V88.6905H109.563V83.4789Z" fill="#17C7B0"/>
<path d="M109.563 88.7036H104.352V93.9153H109.563V88.7036Z" fill="#17C7B0"/>
<path d="M104.339 62.6058H99.127V67.8175H104.339V62.6058Z" fill="#17C7B0"/>
<path d="M104.339 78.2672H99.127V83.4789H104.339V78.2672Z" fill="#17C7B0"/>
<path d="M104.339 93.9153H99.127V99.127H104.339V93.9153Z" fill="#17C7B0"/>
<path d="M104.339 57.3942H99.127V62.6058H104.339V57.3942Z" fill="#17C7B0"/>
<path d="M104.339 52.1693H99.127V57.381H104.339V52.1693Z" fill="#17C7B0"/>
<path d="M99.127 62.6058H93.9153V67.8175H99.127V62.6058Z" fill="#17C7B0"/>
<path d="M99.127 67.8307H93.9153V73.0424H99.127V67.8307Z" fill="#17C7B0"/>
<path d="M99.127 88.7036H93.9153V93.9153H99.127V88.7036Z" fill="#17C7B0"/>
<path d="M99.127 57.3942H93.9153V62.6058H99.127V57.3942Z" fill="#17C7B0"/>
<path d="M93.9153 62.6058H88.7036V67.8175H93.9153V62.6058Z" fill="#17C7B0"/>
<path d="M93.9153 78.2672H88.7036V83.4789H93.9153V78.2672Z" fill="#17C7B0"/>
<path d="M93.9153 83.4789H88.7036V88.6905H93.9153V83.4789Z" fill="#17C7B0"/>
<path d="M93.9153 93.9153H88.7036V99.127H93.9153V93.9153Z" fill="#17C7B0"/>
<path d="M93.9153 99.127H88.7036V104.339H93.9153V99.127Z" fill="#17C7B0"/>
<path d="M93.9153 57.3942H88.7036V62.6058H93.9153V57.3942Z" fill="#17C7B0"/>
<path d="M93.9153 52.1693H88.7036V57.381H93.9153V52.1693Z" fill="#17C7B0"/>
<path d="M88.6905 62.6058H83.4789V67.8175H88.6905V62.6058Z" fill="#17C7B0"/>
<path d="M88.6905 67.8307H83.4789V73.0424H88.6905V67.8307Z" fill="#17C7B0"/>
<path d="M88.6905 78.2672H83.4789V83.4789H88.6905V78.2672Z" fill="#17C7B0"/>
<path d="M88.6905 88.7036H83.4789V93.9153H88.6905V88.7036Z" fill="#17C7B0"/>
<path d="M88.6905 93.9153H83.4789V99.127H88.6905V93.9153Z" fill="#17C7B0"/>
<path d="M88.6905 57.3942H83.4789V62.6058H88.6905V57.3942Z" fill="#17C7B0"/>
<path d="M83.4789 62.6058H78.2672V67.8175H83.4789V62.6058Z" fill="#17C7B0"/>
<path d="M83.4789 67.8307H78.2672V73.0424H83.4789V67.8307Z" fill="#17C7B0"/>
<path d="M83.4789 73.0424H78.2672V78.254H83.4789V73.0424Z" fill="#17C7B0"/>
<path d="M83.4789 78.2672H78.2672V83.4789H83.4789V78.2672Z" fill="#17C7B0"/>
<path d="M83.4789 88.7036H78.2672V93.9153H83.4789V88.7036Z" fill="#17C7B0"/>
<path d="M83.4789 99.127H78.2672V104.339H83.4789V99.127Z" fill="#17C7B0"/>
<path d="M83.4789 57.3942H78.2672V62.6058H83.4789V57.3942Z" fill="#17C7B0"/>
<path d="M83.4789 52.1693H78.2672V57.381H83.4789V52.1693Z" fill="#17C7B0"/>
<path d="M78.254 78.2672H73.0424V83.4789H78.254V78.2672Z" fill="#17C7B0"/>
<path d="M78.254 99.127H73.0424V104.339H78.254V99.127Z" fill="#17C7B0"/>
<path d="M73.0424 62.6058H67.8307V67.8175H73.0424V62.6058Z" fill="#17C7B0"/>
<path d="M73.0424 67.8307H67.8307V73.0424H73.0424V67.8307Z" fill="#17C7B0"/>
<path d="M73.0424 78.2672H67.8307V83.4789H73.0424V78.2672Z" fill="#17C7B0"/>
<path d="M73.0424 83.4789H67.8307V88.6905H73.0424V83.4789Z" fill="#17C7B0"/>
<path d="M73.0424 93.9153H67.8307V99.127H73.0424V93.9153Z" fill="#17C7B0"/>
<path d="M73.0424 57.3942H67.8307V62.6058H73.0424V57.3942Z" fill="#17C7B0"/>
<path d="M73.0424 52.1693H67.8307V57.381H73.0424V52.1693Z" fill="#17C7B0"/>
<path d="M67.8175 15.6482H62.6058V20.8599H67.8175V15.6482Z" fill="#17C7B0"/>
<path d="M67.8175 20.873H62.6058V26.0847H67.8175V20.873Z" fill="#17C7B0"/>
<path d="M67.8175 26.0847H62.6058V31.2964H67.8175V26.0847Z" fill="#17C7B0"/>
<path d="M67.8175 36.5211H62.6058V41.7328H67.8175V36.5211Z" fill="#17C7B0"/>
<path d="M67.8175 46.9576H62.6058V52.1693H67.8175V46.9576Z" fill="#17C7B0"/>
<path d="M67.8175 5.21167H62.6058V10.4233H67.8175V5.21167Z" fill="#17C7B0"/>
<path d="M67.8175 0H62.6058V5.21167H67.8175V0Z" fill="#17C7B0"/>
<path d="M62.6058 10.4365H57.3942V15.6482H62.6058V10.4365Z" fill="#17C7B0"/>
<path d="M62.6058 15.6482H57.3942V20.8599H62.6058V15.6482Z" fill="#17C7B0"/>
<path d="M62.6058 20.873H57.3942V26.0847H62.6058V20.873Z" fill="#17C7B0"/>
<path d="M62.6058 26.0847H57.3942V31.2964H62.6058V26.0847Z" fill="#17C7B0"/>
<path d="M62.6058 31.3094H57.3942V36.5211H62.6058V31.3094Z" fill="#17C7B0"/>
<path d="M62.6058 36.5211H57.3942V41.7328H62.6058V36.5211Z" fill="#17C7B0"/>
<path d="M62.6058 46.9576H57.3942V52.1693H62.6058V46.9576Z" fill="#17C7B0"/>
<path d="M62.6058 5.21167H57.3942V10.4233H62.6058V5.21167Z" fill="#17C7B0"/>
<path d="M57.381 10.4365H52.1693V15.6482H57.381V10.4365Z" fill="#17C7B0"/>
<path d="M57.381 15.6482H52.1693V20.8599H57.381V15.6482Z" fill="#17C7B0"/>
<path d="M57.381 26.0847H52.1693V31.2964H57.381V26.0847Z" fill="#17C7B0"/>
<path d="M57.381 36.5211H52.1693V41.7328H57.381V36.5211Z" fill="#17C7B0"/>
<path d="M57.381 46.9576H52.1693V52.1693H57.381V46.9576Z" fill="#17C7B0"/>
<path d="M57.381 0H52.1693V5.21167H57.381V0Z" fill="#17C7B0"/>
<path d="M52.1693 20.873H46.9576V26.0847H52.1693V20.873Z" fill="#17C7B0"/>
<path d="M52.1693 36.5211H46.9576V41.7328H52.1693V36.5211Z" fill="#17C7B0"/>
<path d="M52.1693 46.9576H46.9576V52.1693H52.1693V46.9576Z" fill="#17C7B0"/>
<path d="M52.1693 0H46.9576V5.21167H52.1693V0Z" fill="#17C7B0"/>
<path d="M46.9576 31.3094H41.746V36.5211H46.9576V31.3094Z" fill="#17C7B0"/>
<path d="M46.9576 36.5211H41.746V41.7328H46.9576V36.5211Z" fill="#17C7B0"/>
<path d="M46.9576 0H41.746V5.21167H46.9576V0Z" fill="#17C7B0"/>
<path d="M41.7328 10.4365H36.5211V15.6482H41.7328V10.4365Z" fill="#17C7B0"/>
<path d="M41.7328 15.6482H36.5211V20.8599H41.7328V15.6482Z" fill="#17C7B0"/>
<path d="M41.7328 26.0847H36.5211V31.2964H41.7328V26.0847Z" fill="#17C7B0"/>
<path d="M41.7328 31.3094H36.5211V36.5211H41.7328V31.3094Z" fill="#17C7B0"/>
<path d="M41.7328 36.5211H36.5211V41.7328H41.7328V36.5211Z" fill="#17C7B0"/>
<path d="M41.7328 41.746H36.5211V46.9576H41.7328V41.746Z" fill="#17C7B0"/>
<path d="M41.7328 46.9576H36.5211V52.1693H41.7328V46.9576Z" fill="#17C7B0"/>
<path d="M41.7328 5.21167H36.5211V10.4233H41.7328V5.21167Z" fill="#17C7B0"/>
<path d="M36.5211 10.4365H31.3094V15.6482H36.5211V10.4365Z" fill="#17C7B0"/>
<path d="M36.5211 20.873H31.3094V26.0847H36.5211V20.873Z" fill="#17C7B0"/>
<path d="M36.5211 31.3094H31.3094V36.5211H36.5211V31.3094Z" fill="#17C7B0"/>
<path d="M36.5211 36.5211H31.3094V41.7328H36.5211V36.5211Z" fill="#17C7B0"/>
<path d="M36.5211 41.746H31.3094V46.9576H36.5211V41.746Z" fill="#17C7B0"/>
<path d="M36.5211 46.9576H31.3094V52.1693H36.5211V46.9576Z" fill="#17C7B0"/>
<path d="M36.5211 0H31.3094V5.21167H36.5211V0Z" fill="#17C7B0"/>
<path d="M31.2964 10.4365H26.0847V15.6482H31.2964V10.4365Z" fill="#17C7B0"/>
<path d="M31.2964 15.6482H26.0847V20.8599H31.2964V15.6482Z" fill="#17C7B0"/>
<path d="M31.2964 20.873H26.0847V26.0847H31.2964V20.873Z" fill="#17C7B0"/>
<path d="M31.2964 26.0847H26.0847V31.2964H31.2964V26.0847Z" fill="#17C7B0"/>
<path d="M31.2964 31.3094H26.0847V36.5211H31.2964V31.3094Z" fill="#17C7B0"/>
<path d="M31.2964 46.9576H26.0847V52.1693H31.2964V46.9576Z" fill="#17C7B0"/>
<path d="M26.0847 15.6482H20.873V20.8599H26.0847V15.6482Z" fill="#17C7B0"/>
<path d="M26.0847 26.0847H20.873V31.2964H26.0847V26.0847Z" fill="#17C7B0"/>
<path d="M26.0847 41.746H20.873V46.9576H26.0847V41.746Z" fill="#17C7B0"/>
<path d="M26.0847 46.9576H20.873V52.1693H26.0847V46.9576Z" fill="#17C7B0"/>
<path d="M26.0847 0H20.873V5.21167H26.0847V0Z" fill="#17C7B0"/>
<path d="M20.8599 20.873H15.6482V26.0847H20.8599V20.873Z" fill="#17C7B0"/>
<path d="M67.8175 67.8307H62.6058V73.0424H67.8175V67.8307Z" fill="#17C7B0"/>
<path d="M67.8175 78.2672H62.6058V83.4789H67.8175V78.2672Z" fill="#17C7B0"/>
<path d="M67.8175 83.4789H62.6058V88.6905H67.8175V83.4789Z" fill="#17C7B0"/>
<path d="M67.8175 99.127H62.6058V104.339H67.8175V99.127Z" fill="#17C7B0"/>
<path d="M62.6058 67.8307H57.3942V73.0424H62.6058V67.8307Z" fill="#17C7B0"/>
<path d="M62.6058 78.2672H57.3942V83.4789H62.6058V78.2672Z" fill="#17C7B0"/>
<path d="M62.6058 83.4789H57.3942V88.6905H62.6058V83.4789Z" fill="#17C7B0"/>
<path d="M62.6058 88.7036H57.3942V93.9153H62.6058V88.7036Z" fill="#17C7B0"/>
<path d="M62.6058 93.9153H57.3942V99.127H62.6058V93.9153Z" fill="#17C7B0"/>
<path d="M62.6058 57.3942H57.3942V62.6058H62.6058V57.3942Z" fill="#17C7B0"/>
<path d="M57.381 67.8307H52.1693V73.0424H57.381V67.8307Z" fill="#17C7B0"/>
<path d="M57.381 78.2672H52.1693V83.4789H57.381V78.2672Z" fill="#17C7B0"/>
<path d="M57.381 83.4789H52.1693V88.6905H57.381V83.4789Z" fill="#17C7B0"/>
<path d="M57.381 88.7036H52.1693V93.9153H57.381V88.7036Z" fill="#17C7B0"/>
<path d="M57.381 93.9153H52.1693V99.127H57.381V93.9153Z" fill="#17C7B0"/>
<path d="M57.381 99.127H52.1693V104.339H57.381V99.127Z" fill="#17C7B0"/>
<path d="M52.1693 62.6058H46.9576V67.8175H52.1693V62.6058Z" fill="#17C7B0"/>
<path d="M52.1693 67.8307H46.9576V73.0424H52.1693V67.8307Z" fill="#17C7B0"/>
<path d="M52.1693 78.2672H46.9576V83.4789H52.1693V78.2672Z" fill="#17C7B0"/>
<path d="M52.1693 88.7036H46.9576V93.9153H52.1693V88.7036Z" fill="#17C7B0"/>
<path d="M52.1693 99.127H46.9576V104.339H52.1693V99.127Z" fill="#17C7B0"/>
<path d="M52.1693 57.3942H46.9576V62.6058H52.1693V57.3942Z" fill="#17C7B0"/>
<path d="M52.1693 52.1693H46.9576V57.381H52.1693V52.1693Z" fill="#17C7B0"/>
<path d="M46.9576 78.2672H41.746V83.4789H46.9576V78.2672Z" fill="#17C7B0"/>
<path d="M46.9576 83.4789H41.746V88.6905H46.9576V83.4789Z" fill="#17C7B0"/>
<path d="M46.9576 88.7036H41.746V93.9153H46.9576V88.7036Z" fill="#17C7B0"/>
<path d="M46.9576 93.9153H41.746V99.127H46.9576V93.9153Z" fill="#17C7B0"/>
<path d="M41.7328 62.6058H36.5211V67.8175H41.7328V62.6058Z" fill="#17C7B0"/>
<path d="M41.7328 67.8307H36.5211V73.0424H41.7328V67.8307Z" fill="#17C7B0"/>
<path d="M41.7328 73.0424H36.5211V78.254H41.7328V73.0424Z" fill="#17C7B0"/>
<path d="M41.7328 78.2672H36.5211V83.4789H41.7328V78.2672Z" fill="#17C7B0"/>
<path d="M41.7328 88.7036H36.5211V93.9153H41.7328V88.7036Z" fill="#17C7B0"/>
<path d="M41.7328 57.3942H36.5211V62.6058H41.7328V57.3942Z" fill="#17C7B0"/>
<path d="M41.7328 52.1693H36.5211V57.381H41.7328V52.1693Z" fill="#17C7B0"/>
<path d="M36.5211 73.0424H31.3094V78.254H36.5211V73.0424Z" fill="#17C7B0"/>
<path d="M36.5211 93.9153H31.3094V99.127H36.5211V93.9153Z" fill="#17C7B0"/>
<path d="M36.5211 99.127H31.3094V104.339H36.5211V99.127Z" fill="#17C7B0"/>
<path d="M36.5211 57.3942H31.3094V62.6058H36.5211V57.3942Z" fill="#17C7B0"/>
<path d="M31.2964 62.6058H26.0847V67.8175H31.2964V62.6058Z" fill="#17C7B0"/>
<path d="M31.2964 67.8307H26.0847V73.0424H31.2964V67.8307Z" fill="#17C7B0"/>
<path d="M31.2964 73.0424H26.0847V78.254H31.2964V73.0424Z" fill="#17C7B0"/>
<path d="M31.2964 78.2672H26.0847V83.4789H31.2964V78.2672Z" fill="#17C7B0"/>
<path d="M31.2964 57.3942H26.0847V62.6058H31.2964V57.3942Z" fill="#17C7B0"/>
<path d="M26.0847 62.6058H20.873V67.8175H26.0847V62.6058Z" fill="#17C7B0"/>
<path d="M26.0847 67.8307H20.873V73.0424H26.0847V67.8307Z" fill="#17C7B0"/>
<path d="M26.0847 78.2672H20.873V83.4789H26.0847V78.2672Z" fill="#17C7B0"/>
<path d="M26.0847 88.7036H20.873V93.9153H26.0847V88.7036Z" fill="#17C7B0"/>
<path d="M26.0847 99.127H20.873V104.339H26.0847V99.127Z" fill="#17C7B0"/>
<path d="M26.0847 57.3942H20.873V62.6058H26.0847V57.3942Z" fill="#17C7B0"/>
<path d="M26.0847 52.1693H20.873V57.381H26.0847V52.1693Z" fill="#17C7B0"/>
<path d="M20.8599 62.6058H15.6482V67.8175H20.8599V62.6058Z" fill="#17C7B0"/>
<path d="M20.8599 83.4789H15.6482V88.6905H20.8599V83.4789Z" fill="#17C7B0"/>
<path d="M20.8599 88.7036H15.6482V93.9153H20.8599V88.7036Z" fill="#17C7B0"/>
<path d="M20.8599 93.9153H15.6482V99.127H20.8599V93.9153Z" fill="#17C7B0"/>
<path d="M20.8599 99.127H15.6482V104.339H20.8599V99.127Z" fill="#17C7B0"/>
<path d="M114.775 109.563H109.563V114.775H114.775V109.563Z" fill="#17C7B0"/>
<path d="M109.563 104.352H104.352V109.563H109.563V104.352Z" fill="#17C7B0"/>
<path d="M109.563 109.563H104.352V114.775H109.563V109.563Z" fill="#17C7B0"/>
<path d="M109.563 114.788H104.352V120H109.563V114.788Z" fill="#17C7B0"/>
<path d="M99.127 104.352H93.9153V109.563H99.127V104.352Z" fill="#17C7B0"/>
<path d="M99.127 109.563H93.9153V114.775H99.127V109.563Z" fill="#17C7B0"/>
<path d="M93.9153 104.352H88.7036V109.563H93.9153V104.352Z" fill="#17C7B0"/>
<path d="M93.9153 109.563H88.7036V114.775H93.9153V109.563Z" fill="#17C7B0"/>
<path d="M88.6905 104.352H83.4789V109.563H88.6905V104.352Z" fill="#17C7B0"/>
<path d="M88.6905 109.563H83.4789V114.775H88.6905V109.563Z" fill="#17C7B0"/>
<path d="M88.6905 114.788H83.4789V120H88.6905V114.788Z" fill="#17C7B0"/>
<path d="M83.4789 109.563H78.2672V114.775H83.4789V109.563Z" fill="#17C7B0"/>
<path d="M78.254 104.352H73.0424V109.563H78.254V104.352Z" fill="#17C7B0"/>
<path d="M78.254 109.563H73.0424V114.775H78.254V109.563Z" fill="#17C7B0"/>
<path d="M78.254 114.788H73.0424V120H78.254V114.788Z" fill="#17C7B0"/>
<path d="M73.0424 114.788H67.8307V120H73.0424V114.788Z" fill="#17C7B0"/>
<path d="M57.381 114.788H52.1693V120H57.381V114.788Z" fill="#17C7B0"/>
<path d="M52.1693 109.563H46.9576V114.775H52.1693V109.563Z" fill="#17C7B0"/>
<path d="M52.1693 114.788H46.9576V120H52.1693V114.788Z" fill="#17C7B0"/>
<path d="M46.9576 104.352H41.746V109.563H46.9576V104.352Z" fill="#17C7B0"/>
<path d="M46.9576 109.563H41.746V114.775H46.9576V109.563Z" fill="#17C7B0"/>
<path d="M41.7328 104.352H36.5211V109.563H41.7328V104.352Z" fill="#17C7B0"/>
<path d="M36.5211 114.788H31.3094V120H36.5211V114.788Z" fill="#17C7B0"/>
<path d="M31.2964 109.563H26.0847V114.775H31.2964V109.563Z" fill="#17C7B0"/>
<path d="M31.2964 114.788H26.0847V120H31.2964V114.788Z" fill="#17C7B0"/>
<path d="M26.0847 109.563H20.873V114.775H26.0847V109.563Z" fill="#17C7B0"/>
<path d="M20.8599 104.352H15.6482V109.563H20.8599V104.352Z" fill="#17C7B0"/>
<path d="M20.8599 114.788H15.6482V120H20.8599V114.788Z" fill="#17C7B0"/>
<path d="M20.8599 57.3942H15.6482V62.6058H20.8599V57.3942Z" fill="#17C7B0"/>
<path d="M20.8599 52.1693H15.6482V57.381H20.8599V52.1693Z" fill="#17C7B0"/>
<path d="M15.6482 15.6482H10.4365V20.8599H15.6482V15.6482Z" fill="#17C7B0"/>
<path d="M15.6482 31.3094H10.4365V36.5211H15.6482V31.3094Z" fill="#17C7B0"/>
<path d="M15.6482 36.5211H10.4365V41.7328H15.6482V36.5211Z" fill="#17C7B0"/>
<path d="M15.6482 41.746H10.4365V46.9576H15.6482V41.746Z" fill="#17C7B0"/>
<path d="M15.6482 46.9576H10.4365V52.1693H15.6482V46.9576Z" fill="#17C7B0"/>
<path d="M10.4233 10.4365H5.21167V15.6482H10.4233V10.4365Z" fill="#17C7B0"/>
<path d="M10.4233 15.6482H5.21167V20.8599H10.4233V15.6482Z" fill="#17C7B0"/>
<path d="M10.4233 26.0847H5.21167V31.2964H10.4233V26.0847Z" fill="#17C7B0"/>
<path d="M5.21167 10.4365H0V15.6482H5.21167V10.4365Z" fill="#17C7B0"/>
<path d="M5.21167 15.6482H0V20.8599H5.21167V15.6482Z" fill="#17C7B0"/>
<path d="M5.21167 36.5211H0V41.7328H5.21167V36.5211Z" fill="#17C7B0"/>
<path d="M5.21167 41.746H0V46.9576H5.21167V41.746Z" fill="#17C7B0"/>
<path d="M5.21167 46.9576H0V52.1693H5.21167V46.9576Z" fill="#17C7B0"/>
<path d="M5.21167 5.21167H0V10.4233H5.21167V5.21167Z" fill="#17C7B0"/>
<path d="M5.21167 0H0V5.21167H5.21167V0Z" fill="#17C7B0"/>
<path d="M15.6482 62.6058H10.4365V67.8175H15.6482V62.6058Z" fill="#17C7B0"/>
<path d="M15.6482 67.8307H10.4365V73.0424H15.6482V67.8307Z" fill="#17C7B0"/>
<path d="M15.6482 73.0424H10.4365V78.254H15.6482V73.0424Z" fill="#17C7B0"/>
<path d="M15.6482 78.2672H10.4365V83.4789H15.6482V78.2672Z" fill="#17C7B0"/>
<path d="M15.6482 83.4789H10.4365V88.6905H15.6482V83.4789Z" fill="#17C7B0"/>
<path d="M15.6482 88.7036H10.4365V93.9153H15.6482V88.7036Z" fill="#17C7B0"/>
<path d="M15.6482 57.3942H10.4365V62.6058H15.6482V57.3942Z" fill="#17C7B0"/>
<path d="M15.6482 52.1693H10.4365V57.381H15.6482V52.1693Z" fill="#17C7B0"/>
<path d="M10.4233 73.0424H5.21167V78.254H10.4233V73.0424Z" fill="#17C7B0"/>
<path d="M10.4233 78.2672H5.21167V83.4789H10.4233V78.2672Z" fill="#17C7B0"/>
<path d="M10.4233 83.4789H5.21167V88.6905H10.4233V83.4789Z" fill="#17C7B0"/>
<path d="M10.4233 88.7036H5.21167V93.9153H10.4233V88.7036Z" fill="#17C7B0"/>
<path d="M10.4233 93.9153H5.21167V99.127H10.4233V93.9153Z" fill="#17C7B0"/>
<path d="M15.6482 104.352H10.4365V109.563H15.6482V104.352Z" fill="#17C7B0"/>
<path d="M10.4233 114.788H5.21167V120H10.4233V114.788Z" fill="#17C7B0"/>
<path d="M5.21167 57.3942H0V62.6058H5.21167V57.3942Z" fill="#17C7B0"/>
<path d="M5.21167 52.1693H0V57.381H5.21167V52.1693Z" fill="#17C7B0"/>
</g>
<defs>
<clipPath id="clip0_799_476">
<rect width="120" height="120" fill="white"/>
</clipPath>
</defs>
</svg>
