<svg width="112" height="120" viewBox="0 0 112 120" fill="none" xmlns="http://www.w3.org/2000/svg">
<path d="M33.0001 0C30.6427 0 28.7143 1.92862 28.7143 4.28571V8.1856H22.0286C9.89999 8.1856 0 18.0427 0 30.1713V98.0143C-4.28571e-07 110.143 9.89999 120 22.0286 120H89.8284C101.957 120 111.857 110.143 111.857 98.0143V30.1713C111.857 18.0427 101.957 8.1856 89.8284 8.1856H83.1427V4.28571C83.1427 1.92862 81.2143 0 78.857 0C76.457 0 74.5713 1.92862 74.5713 4.28571V8.1856H37.2858V4.28571C37.2858 1.92862 35.4 0 33.0001 0ZM40.1142 46.5857C40.9285 46.4999 41.6141 45.9856 41.9999 45.2142L45.9856 37.1142C47.8714 33.2998 51.6857 30.9427 55.9285 30.9427C60.1713 30.9427 63.9857 33.2998 65.8714 37.1142L69.8571 45.2142C70.2429 45.9856 70.9285 46.4999 71.7428 46.5857L80.7001 47.9143C84.9429 48.5143 88.3714 51.3857 89.6571 55.4572C90.9856 59.4857 89.9142 63.857 86.8712 66.8141L80.4 73.1143C79.8 73.7143 79.4999 74.5286 79.6713 75.3427L81.1714 84.257C81.8999 88.4572 80.2284 92.6142 76.7999 95.1C74.8284 96.5141 72.5571 97.2429 70.2856 97.2429C68.5285 97.2429 66.7286 96.8141 65.1 95.9572L57.0857 91.757C56.357 91.3715 55.5001 91.3715 54.7713 91.757L46.757 95.9572C42.9856 97.9285 38.5285 97.5855 35.0571 95.1C31.6286 92.6142 29.9571 88.4572 30.6856 84.257L32.1858 75.3427C32.3571 74.5286 32.0571 73.7143 31.457 73.1143L24.9858 66.8141C21.9428 63.857 20.8714 59.4857 22.2 55.4572C23.4856 51.3857 26.9141 48.5143 31.157 47.9143L40.1142 46.5857Z" fill="#FF1284"/>
<path d="M30.3429 58.1143C30.2142 58.5427 29.9571 59.7 30.9856 60.6856L37.4571 66.9857C40.0713 69.5142 41.2714 73.1998 40.6285 76.7999L39.1286 85.7143C38.8715 87.0857 39.7284 87.9 40.1142 88.1572C40.5001 88.4572 41.5286 89.0141 42.7713 88.3714L50.7856 84.1715C52.3713 83.3143 54.1715 82.8856 55.9285 82.8856C57.6855 82.8856 59.4857 83.3143 61.0714 84.1715L69.0857 88.3714C70.3285 89.0141 71.357 88.4572 71.7428 88.1572C72.1286 87.9 72.9856 87.0857 72.7284 85.7143L71.2285 76.7999C70.5856 73.1998 71.7857 69.5142 74.3999 66.9857L80.8714 60.6856C81.8999 59.7 81.6428 58.5427 81.5141 58.1143C81.3857 57.6429 80.8714 56.5715 79.4999 56.3999L70.5427 55.0713C66.8999 54.5571 63.8143 52.2858 62.1858 49.0286L58.2001 40.8856C57.5571 39.6429 56.3999 39.5142 55.9285 39.5142C55.4572 39.5142 54.2999 39.6429 53.657 40.8856L49.6713 49.0286C48.0427 52.2858 44.9571 54.5571 41.3143 55.0713L32.3571 56.3999C30.9856 56.5715 30.4714 57.6429 30.3429 58.1143Z" fill="#FF1284"/>
</svg>
