<svg width="120" height="120" viewBox="0 0 120 120" fill="none" xmlns="http://www.w3.org/2000/svg">
<g clip-path="url(#clip0_799_441)">
<path d="M113.398 6.60096C108.999 2.20059 103.699 0 97.5013 0H22.5007C16.3034 0 11.003 2.20059 6.60182 6.60096C2.20145 11.0022 0.000854492 16.3022 0.000854492 22.4999V97.4996C0.000854492 103.697 2.20145 108.997 6.60182 113.398C11.003 117.8 16.3034 120 22.5007 120H97.5005C103.698 120 108.998 117.8 113.397 113.398C117.799 108.997 119.999 103.697 119.999 97.4996V22.4999C119.999 16.3022 117.798 11.0013 113.398 6.60096ZM98.2795 91.0869C97.1858 93.4823 94.7249 95.5666 90.8976 97.3384C87.0694 99.1102 83.67 99.996 80.7005 99.996C79.867 99.996 78.9812 99.9317 78.044 99.8014C77.1065 99.6704 76.3135 99.5409 75.6625 99.4107C75.0118 99.2804 74.1512 99.0465 73.0846 98.7074C72.016 98.3698 71.2471 98.1084 70.78 97.9265C70.3099 97.7448 69.4512 97.4191 68.2021 96.9507C66.9518 96.4806 66.1697 96.1941 65.8592 96.092C57.3176 92.9651 48.97 87.3279 40.8194 79.1774C32.6688 71.0249 27.0305 62.6792 23.9053 54.139C23.8019 53.8262 23.5154 53.0447 23.0461 51.7952C22.5776 50.5461 22.2512 49.686 22.0689 49.2179C21.8878 48.7491 21.627 47.9807 21.2882 46.9138C20.9497 45.8458 20.7161 44.9871 20.5855 44.3353C20.4547 43.6852 20.3256 42.8913 20.195 41.9536C20.0648 41.0158 19.9999 40.1292 19.9999 39.2966C19.9999 36.3276 20.8857 32.9293 22.657 29.1011C24.4279 25.2735 26.5109 22.8126 28.9071 21.7186C31.6676 20.5724 34.2978 19.9994 36.798 19.9994C37.3702 19.9994 37.7875 20.0519 38.0472 20.1559C38.3079 20.2612 38.7378 20.7289 39.3371 21.5624C39.9364 22.3959 40.5871 23.4502 41.2901 24.7265C41.9933 26.003 42.6834 27.2401 43.3604 28.4375C44.0374 29.6352 44.6886 30.8195 45.3139 31.9924C45.9389 33.1633 46.3294 33.9065 46.4853 34.2179C46.6416 34.4797 46.9803 34.9736 47.5008 35.7034C48.0213 36.4321 48.4128 37.0823 48.6728 37.6558C48.9328 38.2288 49.0633 38.7758 49.0633 39.2966C49.0633 40.0789 48.5289 41.029 47.4614 42.1479C46.3934 43.2679 45.2214 44.297 43.9452 45.2348C42.6689 46.1725 41.4975 47.1754 40.4297 48.2432C39.3628 49.3101 38.8284 50.1824 38.8284 50.8597C38.8284 51.2244 38.9195 51.6538 39.102 52.1485C39.2843 52.6443 39.4537 53.048 39.6099 53.3599C39.7662 53.6721 40.0141 54.1151 40.352 54.6887C40.6905 55.2622 40.9124 55.6264 41.0159 55.783C43.88 60.9391 47.1749 65.3794 50.898 69.1039C54.6228 72.829 59.0623 76.1222 64.2193 78.9869C64.3744 79.092 64.7397 79.3128 65.3149 79.6518C65.8871 79.989 66.3309 80.2363 66.6429 80.3926C66.9556 80.5488 67.3581 80.7185 67.8537 80.8994C68.3493 81.0811 68.7789 81.1727 69.145 81.1727C69.9758 81.1727 71.122 80.314 72.5819 78.5956C74.0398 76.8755 75.5251 75.1702 77.0356 73.4772C78.545 71.7858 79.7679 70.9395 80.7073 70.9395C81.2278 70.9395 81.7737 71.0689 82.3489 71.3292C82.9221 71.5894 83.5717 71.981 84.3004 72.5014C85.0308 73.0241 85.5252 73.3612 85.7857 73.5196L89.9245 75.7829C92.6852 77.2419 94.9898 78.5305 96.8393 79.6505C98.6889 80.7705 99.6917 81.5383 99.8483 81.9542C99.952 82.2145 100.003 82.6323 100.003 83.2053C100.001 85.7031 99.4274 88.3335 98.2795 91.0869Z" fill="#6FBA47"/>
</g>
<defs>
<clipPath id="clip0_799_441">
<rect width="120" height="120" fill="white"/>
</clipPath>
</defs>
</svg>
