<svg width="120" height="120" viewBox="0 0 120 120" fill="none" xmlns="http://www.w3.org/2000/svg">
<path d="M93.15 0H26.85C12.0499 0 0 12.0499 0 26.85V93.15C0 107.95 12.0499 120 26.85 120H93.15C107.95 120 120 107.95 120 93.15V26.85C120 12.0499 107.95 0 93.15 0ZM45.7178 91.1877C40.9771 95.8523 33.5809 95.86 28.8324 91.1877C24.1679 86.4471 24.1601 79.051 28.8324 74.3024C33.3545 69.7803 41.232 69.7803 45.7178 74.3024C50.4626 79.0472 50.3133 86.5922 45.7178 91.1877ZM71.3574 87.7148C68.5938 87.7148 66.3574 85.4785 66.3574 82.7148C66.3574 66.6846 53.3154 53.6426 37.2852 53.6426C34.5215 53.6426 32.2852 51.4062 32.2852 48.6426C32.2852 45.8789 34.5215 43.6426 37.2852 43.6426C58.8281 43.6426 76.3574 61.1719 76.3574 82.7148C76.3574 85.4785 74.1211 87.7148 71.3574 87.7148ZM94.0723 87.7148C91.3086 87.7148 89.0723 85.4785 89.0723 82.7148C89.0723 54.1602 65.8398 30.9277 37.2852 30.9277C34.5215 30.9277 32.2852 28.6914 32.2852 25.9277C32.2852 23.1641 34.5215 20.9277 37.2852 20.9277C71.3525 20.9277 99.0723 48.6475 99.0723 82.7148C99.0723 85.4785 96.8359 87.7148 94.0723 87.7148Z" fill="#21C1F3"/>
</svg>
