<svg width="120" height="120" viewBox="0 0 120 120" fill="none" xmlns="http://www.w3.org/2000/svg">
<path d="M120 43.25V51.2L64.65 80.1C61.75 81.6 58.25 81.6 55.35 80.1L0 51.2V43.25C0 39.1 2.3 35.3 5.95 33.35L54.7 7.29999C58 5.54999 62 5.54999 65.3 7.29999L114.05 33.35C117.7 35.3 120 39.1 120 43.25Z" fill="#2196F3"/>
<path d="M105 13.75C105 6.155 98.845 0 91.25 0H28.75C21.155 0 15 6.155 15 13.75V100.35C15 102.42 16.68 104.1 18.75 104.1H101.25C103.32 104.1 105 102.42 105 100.35V13.75Z" fill="#ECEFF1"/>
<path d="M120 51.2V103.75C120 109.95 114.95 115 108.75 115H11.25C5.05 115 0 109.95 0 103.75V51.2L55.35 80.1C58.25 81.6 61.75 81.6 64.65 80.1L120 51.2Z" fill="#64B5F6"/>
<path d="M80 50H40C37.24 50 35 47.76 35 45C35 42.24 37.24 40 40 40H80C82.76 40 85 42.24 85 45C85 47.76 82.76 50 80 50Z" fill="#90A4AE"/>
<path d="M60 30H40C37.24 30 35 27.76 35 25C35 22.24 37.24 20 40 20H60C62.76 20 65 22.24 65 25C65 27.76 62.76 30 60 30Z" fill="#90A4AE"/>
</svg>
