<svg width="110" height="120" viewBox="0 0 110 120" fill="none" xmlns="http://www.w3.org/2000/svg">
<path fill-rule="evenodd" clip-rule="evenodd" d="M27.2727 0C18.2354 0 10.9091 7.32627 10.9091 16.3636V27.2727H5.45455C2.44211 27.2727 0 29.7148 0 32.7273C0 35.7397 2.44211 38.1818 5.45455 38.1818H10.9091V54.5455H5.45455C2.44211 54.5455 0 56.9875 0 60C0 63.0125 2.44211 65.4545 5.45455 65.4545H10.9091V81.8182H5.45455C2.44211 81.8182 0 84.2602 0 87.2727C0 90.2853 2.44211 92.7273 5.45455 92.7273H10.9091V103.636C10.9091 112.674 18.2354 120 27.2727 120H92.7273C101.765 120 109.091 112.674 109.091 103.636V16.3636C109.091 7.32627 101.765 0 92.7273 0H27.2727ZM70.9091 43.6364C70.9091 49.6615 66.0251 54.5455 60 54.5455C53.9749 54.5455 49.0909 49.6615 49.0909 43.6364C49.0909 37.6114 53.9749 32.7273 60 32.7273C66.0251 32.7273 70.9091 37.6114 70.9091 43.6364ZM38.1819 76.3642C38.1822 82.3887 43.0663 87.2727 49.0909 87.2727H70.9091C76.9342 87.2727 81.8182 82.3887 81.8182 76.3636C81.8182 70.3385 76.9342 65.4545 70.9091 65.4545H49.0909C43.0659 65.4545 38.1816 70.3391 38.1819 76.3642Z" fill="#0EC0C0"/>
</svg>
